<?xml version="1.0" standalone="no"?>
<!DOCTYPE svg PUBLIC "-//W3C//DTD SVG 20010904//EN"
 "http://www.w3.org/TR/2001/REC-SVG-20010904/DTD/svg10.dtd">
<svg version="1.0" xmlns="http://www.w3.org/2000/svg"
 width="240.000000pt" height="264.000000pt" viewBox="0 0 240.000000 264.000000"
 preserveAspectRatio="xMidYMid meet">

<g transform="translate(0.000000,264.000000) scale(0.100000,-0.100000)"
fill="#000000" stroke="none">
<path d="M1167 2625 c3 -10 0 -15 -8 -13 -9 2 -15 -8 -17 -29 -2 -22 1 -33 10
-33 9 0 14 -19 15 -65 2 -51 -1 -65 -12 -65 -8 0 -15 9 -15 20 0 47 -112 11
-135 -44 -22 -52 -19 -74 20 -155 46 -95 45 -113 -6 -150 -40 -30 -95 -48
-107 -37 -3 4 4 27 16 51 40 84 24 137 -46 151 -25 5 -32 3 -32 -10 0 -9 -4
-16 -10 -16 -13 0 -13 7 1 70 12 58 2 80 -37 80 -29 0 -37 -26 -25 -81 13 -56
13 -69 1 -69 -5 0 -10 7 -10 16 0 13 -7 15 -32 10 -66 -12 -85 -73 -48 -146
11 -22 20 -44 20 -50 0 -18 -28 -11 -59 16 -35 29 -39 59 -15 105 24 48 15 80
-31 106 -58 33 -77 29 -125 -21 -24 -25 -56 -50 -71 -57 -22 -9 -29 -18 -29
-39 0 -15 7 -33 15 -40 23 -19 13 -34 -26 -40 -35 -5 -46 -24 -30 -49 6 -9 14
-10 22 -5 8 5 24 9 36 9 19 1 23 -4 23 -30 0 -32 19 -56 52 -68 21 -7 22 -3 6
22 -9 15 -8 24 5 45 25 38 21 73 -15 118 -38 48 -32 65 33 89 24 9 52 20 62
24 20 9 23 -18 7 -76 -15 -53 1 -86 52 -109 24 -11 53 -20 66 -20 12 0 22 -6
22 -14 0 -16 -22 -27 -65 -32 -53 -7 -81 -65 -55 -115 10 -18 13 -18 33 -4 24
17 87 21 87 5 0 -5 -7 -10 -15 -10 -9 0 -33 -9 -55 -20 -47 -24 -73 -25 -94
-4 -15 14 -16 14 -16 -5 0 -51 89 -68 139 -25 32 26 105 43 115 25 3 -5 -10
-12 -30 -15 -27 -6 -39 -14 -49 -39 -11 -24 -14 -27 -15 -12 0 11 7 32 16 45
l16 25 -21 -24 c-22 -24 -25 -39 -15 -65 9 -24 24 -19 24 9 0 33 32 48 89 41
25 -3 55 -6 66 -6 46 -2 115 -97 115 -157 -1 -52 -50 -89 -103 -77 -31 6 -31
6 -16 -17 19 -28 79 -51 97 -36 21 16 14 -8 -8 -28 -11 -10 -20 -26 -20 -35 0
-25 -21 -40 -57 -40 -37 0 -73 29 -73 60 0 20 15 28 22 11 2 -5 19 -12 38 -16
28 -5 41 -2 60 14 l25 21 -32 -15 c-37 -18 -77 -11 -97 17 -12 17 -14 17 -20
3 -12 -32 -6 -62 17 -83 13 -12 29 -22 35 -22 23 0 12 -30 -18 -45 -42 -22
-102 -19 -134 6 -35 27 -36 85 -3 126 48 57 42 88 -24 138 -23 17 -66 57 -97
90 -31 33 -61 59 -67 58 -11 -2 -80 84 -91 112 -4 9 -13 14 -20 11 -25 -10
-165 181 -195 267 -15 44 -23 46 -45 12 -11 -17 -14 -34 -9 -52 5 -18 9 -23
12 -13 3 8 7 22 10 30 4 8 6 20 5 25 -2 12 9 -3 53 -79 20 -32 33 -61 30 -64
-7 -7 36 -63 45 -57 4 3 15 -6 24 -20 23 -35 4 -39 -29 -5 -15 16 -32 27 -36
24 -4 -2 -13 5 -19 16 -6 11 -8 20 -4 20 3 0 1 7 -6 15 -7 8 -17 15 -22 15
-13 0 19 -51 75 -121 33 -42 40 -55 23 -44 -14 9 -43 41 -66 71 -23 29 -46 52
-50 49 -10 -6 -35 63 -31 88 1 9 -3 17 -8 17 -30 0 4 -94 63 -175 20 -27 32
-51 26 -53 -6 -2 -7 -9 -3 -15 3 -7 2 -8 -3 -4 -5 5 -9 13 -9 19 0 6 -33 40
-72 76 -60 53 -73 61 -73 44 0 -16 4 -20 18 -15 9 3 14 3 10 -1 -12 -14 28
-66 82 -106 30 -22 58 -40 62 -40 5 0 6 -5 2 -12 -4 -6 -3 -9 2 -6 5 3 29 -5
54 -18 25 -12 55 -27 67 -33 27 -12 44 -37 19 -28 -55 21 -66 20 -66 -7 0 -33
-6 -33 -63 4 -62 39 -137 115 -137 138 0 10 -9 27 -19 36 -11 10 -22 28 -24
40 -4 20 -4 20 -6 -2 -1 -30 24 -79 63 -121 30 -33 31 -34 6 -27 -14 4 -42 10
-62 13 -32 5 -38 3 -38 -12 0 -26 37 -82 71 -106 16 -11 27 -24 24 -29 -3 -4
5 -10 18 -13 12 -3 54 -18 92 -35 68 -28 86 -49 55 -65 -10 -5 -8 -6 7 -3 28
5 38 -8 19 -24 -11 -9 -34 -7 -100 6 -47 9 -86 20 -86 25 0 8 -39 24 -51 21
-3 0 -20 11 -38 26 -39 34 -30 53 31 62 41 7 41 8 -19 9 -48 1 -63 -2 -63 -13
0 -21 48 -74 83 -93 35 -17 27 -26 -35 -37 -21 -4 -40 -11 -44 -17 -8 -14 21
-44 64 -65 l37 -17 -35 -15 c-58 -23 -64 -32 -39 -58 12 -13 37 -27 56 -30 38
-7 42 -18 13 -34 -11 -6 -25 -20 -31 -32 -10 -18 -8 -24 11 -40 12 -10 36 -18
52 -18 26 0 28 -3 22 -22 -4 -13 -8 -34 -8 -48 -1 -21 4 -26 31 -28 17 -2 46
4 64 14 l33 17 -18 -27 c-26 -41 -18 -79 21 -90 20 -6 34 -18 37 -31 7 -28 44
-75 59 -75 6 0 4 6 -5 13 -23 18 -52 67 -40 67 6 0 14 -4 17 -10 3 -5 17 -10
31 -10 21 0 24 4 19 20 -6 18 -3 20 20 14 15 -4 44 0 71 11 42 16 46 16 70 0
14 -9 28 -23 31 -30 7 -21 -34 -101 -64 -125 -38 -29 -69 -25 -122 16 -2 2 2
10 9 19 16 20 44 20 36 0 -4 -12 3 -15 29 -15 30 0 37 5 54 38 10 20 22 47 25
59 7 22 7 22 -36 9 -96 -31 -106 -36 -101 -57 4 -13 0 -19 -13 -19 -9 0 -15
-3 -11 -6 9 -10 -19 -34 -39 -34 -14 0 -12 -6 11 -30 36 -37 84 -54 135 -45
26 4 40 3 40 -4 0 -6 12 -14 26 -17 19 -5 32 0 54 21 31 29 63 26 36 -3 -25
-28 -29 -67 -11 -105 21 -45 60 -61 130 -54 l54 5 -11 -24 c-10 -21 -16 -24
-37 -18 -44 12 -74 10 -78 -6 -4 -12 -3 -12 5 -1 6 9 19 11 40 6 37 -8 54 -26
42 -45 -7 -11 -11 -12 -24 0 -22 18 -30 7 -16 -22 11 -22 11 -22 -5 -3 l-16
20 -15 -20 c-15 -19 -15 -19 -12 9 2 23 -1 29 -19 32 -12 2 -28 -2 -35 -10 -7
-7 -23 -18 -34 -24 -29 -15 -42 -89 -19 -106 20 -14 10 -46 -15 -46 -26 0 -44
-24 -28 -38 9 -7 20 -6 38 3 21 11 29 11 54 -2 16 -8 39 -13 52 -10 24 4 33
-7 14 -18 -15 -9 -12 -45 9 -99 l18 -49 22 22 c11 11 21 31 21 44 1 15 5 10
15 -18 8 -22 22 -45 32 -52 21 -16 77 -17 105 -2 16 9 24 7 41 -9 35 -32 66
-44 104 -40 33 2 37 0 47 -29 6 -18 21 -42 33 -55 31 -30 65 -14 89 44 l18 44
51 -4 c46 -4 54 -1 84 27 26 24 37 29 51 21 10 -6 37 -10 59 -10 36 0 44 4 61
32 11 18 20 42 21 53 0 14 4 10 12 -13 7 -18 19 -37 27 -42 12 -7 17 -2 24 28
4 20 9 55 9 77 2 39 3 41 49 56 42 13 51 14 68 2 11 -8 25 -11 30 -8 19 12 10
33 -20 44 -33 11 -39 37 -14 56 13 9 14 16 5 33 -6 11 -11 30 -11 41 0 12 -7
21 -15 21 -8 0 -23 10 -34 21 -11 12 -26 19 -35 16 -9 -4 -16 3 -20 19 -7 25
-37 32 -65 15 -10 -7 -4 -9 20 -8 30 2 34 -1 31 -20 -2 -12 2 -33 8 -45 9 -19
9 -21 -2 -7 -16 19 -38 14 -38 -9 0 -15 2 -15 11 -2 7 10 9 11 7 2 -6 -22 -23
-13 -21 11 3 37 -5 51 -22 37 -19 -16 -40 -3 -24 16 6 8 7 14 2 14 -5 0 -15
11 -21 24 l-11 24 54 -5 c66 -7 105 7 128 46 22 38 21 59 -3 98 -26 44 -5 56
26 15 22 -28 27 -30 54 -20 17 5 30 14 30 18 0 4 17 6 39 3 21 -3 54 0 73 6
36 12 105 74 78 71 -27 -4 -41 0 -36 9 4 5 0 11 -6 14 -8 3 -2 9 13 15 33 13
59 48 59 79 0 17 6 23 23 23 51 0 67 11 67 44 0 17 -7 42 -16 55 l-16 23 31
-17 c18 -9 47 -15 64 -13 28 3 32 6 31 33 0 17 -4 38 -8 48 -7 14 -3 17 21 17
33 0 73 25 73 45 0 8 -13 24 -30 37 -38 28 -38 34 3 42 19 3 44 17 56 30 l23
24 -24 15 c-12 8 -34 18 -47 22 -25 8 -25 8 10 25 19 10 43 28 54 40 19 22 19
22 0 36 -10 8 -30 14 -44 14 -14 0 -32 4 -40 9 -11 7 -7 12 16 24 33 17 93 81
93 98 0 7 -25 10 -73 7 l-74 -3 42 40 c23 23 47 56 53 74 l12 34 -43 -6 c-23
-3 -53 -9 -67 -13 -23 -6 -22 -4 12 32 44 47 58 80 58 141 l0 45 -82 -74
c-114 -101 -129 -111 -81 -53 68 82 103 158 103 224 0 35 -6 65 -16 79 -17 25
-34 29 -34 8 0 -8 -16 -45 -35 -82 -44 -84 -32 -112 14 -33 17 30 31 59 31 65
0 7 7 15 16 18 11 4 14 1 10 -12 -2 -9 -7 -39 -11 -67 -13 -95 -61 -170 -174
-271 -46 -41 -53 -45 -46 -24 4 14 38 57 75 95 59 61 100 119 100 141 0 4 -14
-11 -31 -32 -36 -45 -128 -144 -135 -144 -2 0 -4 10 -4 23 0 22 47 78 55 67 2
-3 20 14 41 38 22 27 33 47 27 53 -5 5 -31 -18 -66 -61 -38 -47 -62 -68 -72
-64 -8 4 -15 2 -15 -4 0 -16 -79 -117 -93 -118 -6 -1 -59 -47 -116 -102 -112
-108 -123 -132 -83 -175 67 -72 34 -155 -63 -159 l-40 -1 45 -6 c40 -5 48 -3
71 21 14 15 29 25 32 22 3 -4 5 21 4 55 -1 44 -5 60 -13 57 -7 -3 -18 2 -24
10 -7 8 -9 14 -5 14 5 0 1 8 -7 18 -10 11 -13 24 -8 37 10 26 46 58 58 51 10
-6 55 37 47 45 -2 3 13 23 35 44 45 43 59 42 36 -4 -9 -16 -16 -37 -16 -45 0
-9 -20 -37 -45 -63 -43 -44 -64 -83 -27 -50 20 18 65 26 71 12 2 -5 -6 -15
-18 -21 -12 -6 -25 -14 -28 -18 -11 -10 29 5 55 22 28 18 28 9 0 -23 -12 -14
-30 -25 -40 -25 -10 0 -18 -4 -18 -9 0 -13 28 -22 35 -11 5 8 36 -1 54 -16 11
-9 -39 -43 -69 -46 -30 -3 -32 -5 -15 -13 41 -17 55 -35 42 -56 -13 -21 -57
-25 -75 -7 -9 9 -12 9 -12 1 0 -7 5 -15 10 -18 19 -12 11 -53 -12 -61 -17 -5
-27 0 -45 22 l-23 29 0 -30 c0 -58 -53 -78 -65 -25 -7 33 -25 41 -25 11 0 -18
-34 -51 -51 -51 -3 0 -7 35 -8 78 -2 62 0 75 10 65 7 -7 20 -13 28 -13 9 0 1
9 -17 20 -31 19 -36 40 -8 40 7 0 22 10 34 23 22 23 27 51 16 82 -6 14 -8 14
-20 -3 -17 -25 -56 -35 -88 -22 -34 13 -33 26 3 38 31 11 63 53 39 51 -7 0
-22 -5 -33 -10 -18 -8 -17 -9 4 -5 21 4 22 3 10 -9 -8 -7 -27 -15 -43 -17 -23
-2 -30 1 -32 19 -3 17 0 20 17 16 16 -5 15 0 -10 25 -34 34 -39 65 -17 115 17
41 75 96 101 97 11 0 44 3 73 6 59 7 82 -5 82 -42 0 -32 18 -31 26 2 5 18 0
34 -15 55 -20 26 -20 30 -5 36 9 3 36 -4 60 -16 25 -11 57 -21 72 -22 l27 -1
-28 -10 c-34 -12 -66 -5 -97 22 -13 11 -27 20 -33 20 -5 0 7 -13 28 -30 61
-49 145 -35 145 24 0 16 -1 16 -16 2 -21 -21 -47 -20 -94 4 -22 11 -46 20 -55
20 -8 0 -15 5 -15 10 0 16 63 12 87 -5 20 -14 23 -14 33 4 22 43 -1 112 -38
110 -13 0 -12 -3 5 -11 27 -13 36 -37 28 -71 -7 -25 -8 -25 -42 -11 -42 18
-59 13 -149 -42 -92 -57 -108 -57 -23 0 68 46 129 101 129 117 0 5 7 9 15 9 8
0 15 5 15 11 0 6 -7 9 -15 5 -8 -3 -15 -1 -15 4 0 6 -7 10 -15 10 -8 0 -15 7
-15 15 0 9 9 15 23 15 38 1 106 38 119 64 8 20 8 35 0 65 -18 58 -16 85 6 76
9 -4 37 -15 61 -24 65 -24 71 -41 33 -89 -35 -44 -42 -91 -17 -112 17 -14 21
-60 5 -60 -5 0 -10 -4 -10 -10 0 -5 8 -7 18 -3 34 12 52 36 52 69 0 28 4 33
23 32 12 -1 28 -6 35 -12 10 -7 16 -5 23 5 16 25 5 44 -30 49 -39 6 -49 21
-26 40 8 7 15 26 15 41 0 23 -6 32 -26 40 -15 5 -47 30 -71 54 -50 51 -70 55
-128 22 -35 -20 -40 -27 -39 -57 1 -19 7 -49 14 -66 19 -45 6 -81 -35 -101
-41 -20 -53 -13 -37 22 6 14 10 30 8 37 -1 7 -1 10 1 5 11 -18 23 8 23 47 0
49 -19 72 -68 82 -25 5 -32 3 -32 -10 0 -9 -4 -16 -10 -16 -12 0 -12 13 1 69
13 58 4 83 -28 79 -32 -4 -49 -29 -38 -54 12 -29 16 -94 5 -94 -6 0 -10 7 -10
16 0 13 -7 15 -32 10 -70 -13 -85 -72 -42 -158 l26 -51 -35 6 c-39 6 -99 42
-116 70 -10 15 -4 34 30 108 34 75 40 96 34 127 -10 54 -23 72 -60 88 -49 20
-82 18 -88 -6 -3 -11 -10 -20 -16 -20 -6 0 -10 25 -9 65 0 36 5 65 9 65 5 0 9
16 9 36 0 21 -4 33 -10 29 -5 -3 -10 1 -10 9 0 12 -10 16 -40 16 -31 0 -38 -3
-33 -15z m47 -19 c-5 -15 -2 -18 15 -13 14 3 21 0 21 -10 0 -9 -6 -12 -19 -8
-13 4 -20 0 -24 -15 -3 -11 -10 -20 -15 -20 -6 0 -8 10 -4 22 4 17 2 20 -11
15 -11 -4 -17 -1 -17 9 0 11 6 14 23 9 18 -6 20 -5 10 6 -18 18 -16 25 7 25
15 0 19 -5 14 -20z m16 -107 c0 -14 -7 -19 -30 -19 -34 0 -41 23 -13 38 23 13
43 4 43 -19z m-91 -106 c17 -85 12 -97 -9 -23 -22 75 -23 80 -11 80 4 0 13
-26 20 -57z m86 47 c-3 -5 -13 -10 -21 -10 -8 0 -14 -4 -14 -10 0 -5 3 -9 8
-9 20 3 23 -3 11 -18 -10 -11 -10 -14 -1 -9 6 4 12 3 12 -1 0 -5 -6 -15 -12
-22 -11 -11 -10 -12 1 -6 10 6 12 4 5 -6 -5 -8 -9 -17 -9 -21 0 -3 -3 -10 -7
-14 -5 -4 -9 8 -9 27 -1 19 -3 45 -4 59 -4 35 4 50 27 50 10 0 16 -4 13 -10z
m69 -12 c-4 -13 -15 -54 -25 -93 -10 -39 -16 -53 -13 -30 9 73 27 145 36 145
5 0 6 -10 2 -22z m-207 -13 c-9 -8 -22 -15 -30 -15 -8 0 -17 -7 -21 -15 -3 -8
-11 -15 -17 -15 -17 0 19 38 50 54 32 15 39 12 18 -9z m243 21 c0 -3 -4 -8
-10 -11 -5 -3 -10 -1 -10 4 0 6 5 11 10 11 6 0 10 -2 10 -4z m30 -26 c0 -5 -9
-10 -21 -10 -11 0 -17 -4 -14 -10 3 -5 -1 -10 -9 -10 -21 0 -20 10 2 26 20 16
42 18 42 4z m-181 -105 c-1 -19 -6 -7 -14 30 -7 33 -10 65 -7 70 7 12 21 -56
21 -100z m76 83 c-3 -13 -9 -43 -14 -68 -9 -45 -9 -45 -10 -9 -1 48 9 99 20
99 5 0 7 -10 4 -22z m-145 2 c0 -5 -7 -10 -16 -10 -8 0 -12 -4 -9 -10 3 -5 2
-10 -4 -10 -5 0 -16 -3 -25 -6 -26 -10 -18 10 12 28 32 19 42 21 42 8z m280
-10 c0 -5 -7 -7 -15 -3 -10 3 -15 0 -13 -8 2 -9 -5 -13 -20 -12 -13 2 -21 -1
-17 -7 3 -6 4 -10 1 -10 -2 0 -11 -3 -20 -6 -10 -4 -16 -1 -16 7 1 8 20 23 43
34 42 21 57 22 57 5z m-570 -24 c0 -8 -3 -21 -6 -30 -5 -13 -8 -13 -20 -1 -16
16 -19 29 -4 20 6 -3 10 1 10 9 0 9 5 16 10 16 6 0 10 -6 10 -14z m780 -9 c0
-31 -9 -39 -26 -22 -17 17 -18 26 -1 23 6 -2 11 3 10 10 -2 6 2 12 7 12 6 0
10 -10 10 -23z m-480 3 c0 -13 -28 -25 -38 -16 -3 4 0 11 8 16 20 13 30 12 30
0z m-91 -26 c-14 -18 -24 -11 -15 11 3 9 11 13 16 10 8 -5 7 -11 -1 -21z m366
-4 c-5 -8 -11 -7 -23 2 -13 11 -15 10 -9 -4 8 -23 -10 -33 -29 -17 -13 11 -11
15 18 30 33 17 57 11 43 -11z m-323 -16 c-24 -17 -39 -14 -27 5 3 6 16 11 28
11 l21 0 -22 -16z m48 -9 c-7 -8 -19 -15 -27 -15 -13 0 -13 3 -3 15 7 8 19 15
27 15 13 0 13 -3 3 -15z m195 4 c4 -6 5 -12 2 -15 -7 -7 -37 7 -37 17 0 13 27
11 35 -2z m-743 -7 c14 -6 8 -13 -30 -33 -26 -15 -58 -30 -72 -34 -22 -6 -21
-3 15 34 39 41 54 46 87 33z m251 -7 c1 -5 -6 -11 -15 -13 -11 -2 -18 3 -18
13 0 17 30 18 33 0z m787 5 c0 -12 -28 -25 -36 -17 -9 9 6 27 22 27 8 0 14 -5
14 -10z m300 -25 c28 -29 31 -35 15 -35 -22 0 -105 39 -105 49 0 34 51 26 90
-14z m-694 10 c4 -8 3 -27 -1 -42 -5 -23 -8 -24 -21 -11 -10 10 -13 24 -8 41
7 30 21 35 30 12z m-168 -6 c-2 -6 -8 -10 -13 -10 -5 0 -11 4 -13 10 -2 6 4
11 13 11 9 0 15 -5 13 -11z m332 -5 c0 -8 -4 -12 -10 -9 -5 3 -10 10 -10 16 0
5 5 9 10 9 6 0 10 -7 10 -16z m-756 0 c21 -8 20 -22 -5 -79 -20 -45 -20 -50
-5 -82 16 -33 15 -33 -4 -23 -32 17 -43 47 -30 80 6 16 11 43 10 62 -3 53 -1
55 34 42z m456 -9 c0 -8 -7 -15 -15 -15 -9 0 -12 6 -9 15 4 8 10 15 15 15 5 0
9 -7 9 -15z m270 0 c0 -8 -7 -15 -15 -15 -9 0 -12 6 -9 15 4 8 10 15 15 15 5
0 9 -7 9 -15z m456 -2 c-4 -9 -1 -38 5 -63 15 -58 7 -93 -27 -115 l-27 -17 17
23 c20 29 21 68 1 105 -16 31 -20 66 -8 77 3 4 15 7 26 7 14 0 17 -5 13 -17z
m-653 -7 c23 -18 22 -36 -2 -36 -20 0 -51 25 -51 41 0 13 32 10 53 -5z m138
-10 c-24 -25 -61 -41 -61 -25 0 17 40 49 62 49 l21 0 -22 -24z m-534 -8 c-3
-8 -6 -5 -6 6 -1 11 2 17 5 13 3 -3 4 -12 1 -19z m108 -18 c-9 -41 -17 -33 -9
9 4 17 9 30 11 27 3 -2 2 -19 -2 -36z m672 18 c-3 -8 -6 -5 -6 6 -1 11 2 17 5
13 3 -3 4 -12 1 -19z m107 -22 c-3 -21 -8 -35 -11 -32 -2 2 -1 20 3 40 3 21 8
35 11 32 2 -2 1 -20 -3 -40z m-129 24 c-3 -5 -12 -10 -18 -10 -7 0 -6 4 3 10
19 12 23 12 15 0z m-780 -21 c0 -8 4 -17 10 -21 5 -4 6 -11 1 -15 -5 -4 -11
-3 -13 4 -2 7 -10 10 -17 7 -8 -3 -16 1 -19 9 -4 11 0 13 14 10 20 -5 27 11 9
20 -6 3 -5 4 2 3 7 -2 13 -9 13 -17z m52 -26 c-3 -10 -5 -4 -5 12 0 17 2 24 5
18 2 -7 2 -21 0 -30z m50 0 c-3 -10 -5 -4 -5 12 0 17 2 24 5 18 2 -7 2 -21 0
-30z m76 20 c11 4 14 1 10 -9 -3 -7 -8 -14 -12 -14 -11 0 -31 23 -31 35 0 5 4
4 9 -4 5 -8 16 -11 24 -8z m191 8 c3 -5 -5 -11 -19 -13 -14 -3 -26 0 -29 8 -6
16 39 20 48 5z m251 -1 c-3 -5 -20 -10 -36 -10 -18 0 -28 4 -24 10 3 6 20 10
36 10 18 0 28 -4 24 -10z m212 -27 c-3 -10 -5 -4 -5 12 0 17 2 24 5 18 2 -7 2
-21 0 -30z m50 0 c-3 -10 -5 -4 -5 12 0 17 2 24 5 18 2 -7 2 -21 0 -30z m76
20 c11 4 14 1 10 -9 -3 -7 -8 -14 -12 -14 -11 0 -31 23 -31 35 0 5 4 4 9 -4 5
-8 16 -11 24 -8z m-1260 -13 c-4 -14 5 -34 26 -60 37 -47 38 -56 6 -116 -19
-36 -26 -43 -31 -29 -4 9 -2 33 4 53 12 40 9 50 -10 35 -7 -6 -30 -13 -50 -16
-29 -4 -38 -2 -38 9 0 9 11 14 35 14 42 0 56 22 31 49 -23 26 -20 60 7 71 12
5 23 9 24 9 0 1 -1 -8 -4 -19z m1081 8 c-2 -3 2 -8 8 -11 8 -2 9 -8 4 -13 -5
-5 -11 -4 -13 3 -2 7 -10 10 -17 7 -8 -3 -16 1 -18 8 -4 8 3 13 17 13 13 0 21
-3 19 -7z m494 -22 c2 -10 -4 -26 -13 -36 -25 -27 -15 -54 20 -58 17 -2 34 -8
40 -13 14 -14 -79 -11 -94 4 -11 10 -13 9 -7 -6 15 -45 16 -63 2 -82 -15 -20
-15 -20 -16 1 0 12 -7 27 -15 34 -25 21 -18 69 16 107 22 26 29 42 25 59 -6
21 -4 23 16 15 13 -4 25 -16 26 -25z m-1108 -1 c10 -13 15 -13 21 -3 4 7 11 9
16 4 9 -9 -23 -29 -54 -33 -13 -2 -23 1 -23 8 0 6 7 9 15 6 8 -4 17 -2 20 3 4
6 -1 10 -9 10 -9 0 -16 5 -16 10 0 15 16 12 30 -5z m286 7 c-6 -9 36 -8 51 1
14 9 93 -3 93 -13 0 -12 -26 -19 -49 -13 -11 3 -18 9 -15 14 3 5 0 9 -5 9 -6
0 -11 -6 -11 -13 0 -11 -20 -14 -84 -13 -63 1 -82 4 -79 14 6 14 54 12 65 -3
4 -6 8 -2 8 8 0 9 7 17 16 17 8 0 13 -4 10 -8z m496 -9 c11 -9 18 -11 18 -5 0
7 5 12 10 12 22 0 8 -19 -21 -29 -40 -14 -49 -14 -49 0 0 6 7 9 15 6 8 -4 17
-2 20 3 4 6 -1 10 -9 10 -9 0 -16 5 -16 10 0 15 11 12 32 -7z m558 -4 c0 -5
-4 -9 -8 -9 -5 0 -9 7 -9 15 0 8 4 12 9 9 4 -3 8 -9 8 -15z m-1540 0 c0 -5 4
-8 9 -4 5 3 12 1 16 -4 3 -6 13 -7 22 -4 11 4 14 3 9 -6 -4 -6 -16 -9 -26 -6
-12 4 -23 -1 -30 -12 -10 -16 -10 -15 -5 5 4 13 2 22 -4 22 -6 0 -11 5 -11 10
0 6 5 10 10 10 6 0 10 -5 10 -11z m780 1 c0 -5 7 -7 15 -4 8 4 15 1 15 -5 0
-6 7 -8 17 -4 11 4 14 3 9 -6 -4 -6 -16 -9 -26 -6 -12 4 -23 -1 -30 -12 -10
-16 -10 -15 -5 5 4 13 2 22 -4 22 -6 0 -11 5 -11 10 0 6 5 10 10 10 6 0 10 -4
10 -10z m-660 -50 c0 -11 -4 -20 -10 -20 -5 0 -10 9 -10 20 0 11 5 20 10 20 6
0 10 -9 10 -20z m403 13 c-7 -2 -21 -2 -30 0 -10 3 -4 5 12 5 17 0 24 -2 18
-5z m377 -13 c0 -11 -4 -20 -10 -20 -5 0 -10 9 -10 20 0 11 5 20 10 20 6 0 10
-9 10 -20z m-870 0 c0 -5 -4 -10 -10 -10 -5 0 -10 5 -10 10 0 6 5 10 10 10 6
0 10 -4 10 -10z m55 -20 c3 -6 0 -10 -7 -10 -15 0 -38 19 -38 32 0 10 36 -8
45 -22z m81 4 c-25 -18 -37 -18 -30 0 6 15 34 26 44 18 3 -2 -4 -10 -14 -18z
m44 16 c0 -5 -4 -10 -10 -10 -5 0 -10 5 -10 10 0 6 5 10 10 10 6 0 10 -4 10
-10z m443 -17 c11 -13 35 -32 55 -43 67 -35 8 -20 -70 18 -85 42 -94 37 -15
-8 49 -28 52 -44 4 -19 -20 11 -20 10 3 -16 14 -15 39 -33 55 -40 l30 -13 -45
-2 -45 -1 24 -20 c15 -12 21 -23 15 -29 -12 -11 -95 -30 -106 -24 -4 3 -8 0
-8 -6 0 -6 12 -16 28 -22 15 -7 29 -13 31 -15 3 -2 -10 -18 -28 -37 -17 -18
-43 -59 -56 -92 -19 -47 -25 -55 -31 -39 -22 62 -36 87 -69 124 -21 23 -36 43
-34 44 2 2 18 9 34 16 17 8 25 16 17 18 -7 3 -18 1 -25 -4 -7 -5 -35 -10 -63
-11 -39 -1 -58 3 -75 18 l-24 20 43 -16 c24 -9 45 -14 49 -11 3 3 -6 9 -21 13
-14 3 -26 10 -26 15 0 12 1 12 43 -6 20 -8 44 -15 54 -14 10 0 2 5 -17 11 -51
14 -57 24 -29 47 l24 20 -45 1 -45 2 34 14 c44 20 36 26 -15 12 -24 -6 -83 -8
-151 -5 -123 6 -134 0 -88 -43 19 -18 25 -20 25 -8 0 19 122 32 201 22 64 -9
46 -22 -41 -32 l-60 -7 25 -29 c14 -16 28 -26 32 -23 4 4 -2 14 -13 22 -10 8
-14 15 -8 15 20 0 74 -78 74 -107 0 -10 -29 6 -88 51 -33 25 -63 46 -67 46 -4
0 13 -22 39 -50 57 -61 65 -101 9 -49 -21 18 -45 42 -55 52 -9 11 -21 16 -27
13 -5 -4 -13 -1 -17 5 -5 8 -3 9 7 4 8 -5 -3 12 -23 37 -39 48 -62 94 -53 108
6 9 295 5 325 -5 13 -4 22 1 30 15 11 20 10 21 -9 11 -11 -6 -26 -11 -33 -11
-7 1 8 12 33 25 42 22 81 55 64 55 -4 0 -19 -9 -35 -20 -30 -22 -115 -60 -133
-60 -6 0 9 13 34 28 24 16 49 35 56 43 9 11 41 15 145 15 127 0 134 -1 151
-23z m157 17 c0 -5 -5 -10 -11 -10 -5 0 -7 5 -4 10 3 6 8 10 11 10 2 0 4 -4 4
-10z m46 -4 c22 -17 11 -35 -13 -20 -19 12 -29 34 -16 34 5 0 18 -6 29 -14z
m85 -17 c-13 -11 -26 -18 -28 -16 -8 9 10 36 25 40 28 6 29 -3 3 -24z m49 21
c0 -5 -5 -10 -11 -10 -5 0 -7 5 -4 10 3 6 8 10 11 10 2 0 4 -4 4 -10z m-945
-30 c3 -5 -3 -10 -14 -10 -12 0 -21 5 -21 10 0 6 6 10 14 10 8 0 18 -4 21 -10z
m160 0 c-3 -5 -13 -10 -21 -10 -8 0 -12 5 -9 10 3 6 13 10 21 10 8 0 12 -4 9
-10z m620 0 c3 -5 -3 -10 -14 -10 -12 0 -21 5 -21 10 0 6 6 10 14 10 8 0 18
-4 21 -10z m160 0 c-3 -5 -13 -10 -21 -10 -8 0 -12 5 -9 10 3 6 13 10 21 10 8
0 12 -4 9 -10z m-13 -56 c18 -18 -20 -77 -104 -161 -51 -51 -94 -91 -96 -89
-7 8 21 51 56 89 66 69 -11 31 -95 -47 -53 -49 -38 -14 21 47 29 31 51 59 48
62 -3 3 -26 5 -51 5 -25 1 -59 7 -76 14 -28 12 -23 13 70 20 114 8 165 1 165
-22 0 -12 6 -10 25 8 47 44 36 50 -93 43 -88 -4 -128 -2 -158 8 -39 14 -38 14
71 20 184 9 211 9 217 3z m-952 -43 c0 -5 16 -30 35 -55 43 -57 29 -60 -25 -6
-41 41 -51 70 -25 70 8 0 15 -4 15 -9z m983 -10 c-5 -21 -83 -100 -83 -85 0 6
9 19 21 30 12 10 27 31 35 46 16 32 35 38 27 9z m-1007 -31 c15 -22 58 -61
102 -90 42 -27 69 -50 61 -50 -8 0 -19 4 -25 10 -5 5 -37 26 -69 46 -63 39
-122 48 -151 23 -20 -16 -29 13 -17 54 6 24 16 33 38 38 17 4 31 7 32 8 2 0
14 -17 29 -39z m1424 36 c0 -2 -8 -10 -17 -17 -16 -13 -17 -12 -4 4 13 16 21
21 21 13z m-1840 -109 c20 -21 48 -40 65 -43 37 -7 37 -7 33 -39 l-3 -27 -45
36 c-24 19 -46 33 -49 31 -7 -8 -31 17 -26 26 3 4 -10 29 -30 54 -19 26 -35
52 -35 58 0 7 12 -4 27 -23 15 -19 44 -52 63 -73z m2023 87 c-7 -3 -9 -12 -7
-19 3 -8 -9 -42 -27 -76 -32 -59 -111 -137 -166 -162 -13 -6 -23 -14 -23 -19
0 -4 -5 -8 -10 -8 -6 0 -4 12 4 28 15 28 14 29 -12 27 -15 -1 -38 -5 -52 -9
l-25 -7 25 22 c14 11 45 32 70 45 25 13 83 60 130 104 47 44 90 79 95 79 6 0
5 -3 -2 -5z m-1968 -54 c5 8 12 6 26 -6 22 -19 22 -23 9 -44 -7 -12 -14 -10
-40 15 -18 17 -41 44 -53 60 l-20 30 35 -33 c24 -23 38 -30 43 -22z m-185 15
c13 -14 21 -25 18 -25 -2 0 -15 11 -28 25 -13 14 -21 25 -18 25 2 0 15 -11 28
-25z m1250 -4 c0 -5 9 -7 20 -4 37 10 20 -8 -27 -29 -26 -11 -49 -16 -50 -11
-2 5 -17 7 -33 5 -18 -3 -30 0 -30 7 0 6 13 11 28 11 16 0 37 7 48 15 22 16
44 19 44 6z m-1195 -41 c10 -11 16 -20 13 -20 -3 0 -13 9 -23 20 -10 11 -16
20 -13 20 3 0 13 -9 23 -20z m221 -47 c-3 -4 -6 -1 -6 5 0 7 -5 12 -11 12 -8
0 -8 -5 1 -15 7 -8 16 -13 20 -10 11 7 51 -45 44 -56 -3 -5 2 -9 10 -9 9 0 16
-9 16 -20 0 -27 -6 -25 -35 8 -28 32 -33 51 -7 31 15 -13 16 -12 4 3 -8 9 -20
14 -28 11 -15 -5 -11 -16 15 -47 9 -10 14 -21 11 -25 -3 -3 5 -7 18 -9 13 -2
29 -16 38 -35 l17 -31 -24 15 c-13 9 -36 23 -51 33 -32 21 -68 94 -68 139 0
43 9 52 28 26 8 -11 11 -23 8 -26z m636 25 c22 1 83 -67 103 -114 8 -20 18
-62 20 -93 l6 -56 -26 54 c-14 31 -21 57 -16 60 14 9 -12 60 -53 106 -41 46
-44 44 -16 -10 11 -22 20 -48 20 -60 -1 -19 -2 -19 -21 4 -14 17 -16 26 -8 31
8 6 8 9 0 14 -6 4 -11 2 -11 -4 0 -6 -10 -4 -24 5 -38 25 -45 85 -7 69 9 -4
24 -6 33 -6z m336 -6 c2 -6 -14 -30 -36 -54 -21 -24 -44 -52 -50 -63 -11 -20
-11 -20 -12 1 0 12 7 27 15 34 8 7 12 16 9 21 -11 18 39 83 59 76 6 -2 12 -8
15 -15z m611 -30 c0 -30 -2 -33 -9 -17 -8 18 -9 17 -9 -8 -1 -43 -25 -81 -70
-110 -55 -37 -52 -21 9 40 28 28 50 57 50 64 0 8 -5 6 -12 -6 -13 -25 -59 -75
-68 -75 -17 0 5 48 37 85 19 22 32 34 27 26 -5 -9 -3 -12 5 -7 6 4 9 12 5 17
-7 13 15 41 27 33 5 -3 9 -22 8 -42z m-1337 13 c-36 -30 -83 -41 -109 -26 -16
9 -15 10 8 11 15 0 46 9 70 20 59 26 66 25 31 -5z m651 3 c-11 -13 -29 -36
-39 -53 -17 -27 -17 -29 -1 -16 16 12 17 12 10 -5 -3 -10 -16 -35 -28 -54 -12
-19 -28 -53 -36 -75 -12 -35 -14 -37 -17 -16 -8 53 32 157 81 209 34 36 62 45
30 10z m361 -13 c14 -13 26 -34 25 -47 l0 -23 -9 22 c-13 33 -53 55 -86 48
l-29 -6 25 15 c34 21 43 20 74 -9z m-692 -46 c10 -13 20 -40 23 -59 5 -31 4
-33 -7 -16 -7 11 -25 33 -40 49 -16 17 -28 33 -28 38 0 4 -3 16 -7 26 -7 17
-6 17 17 2 13 -9 32 -27 42 -40z m467 24 c-6 -16 -21 -39 -33 -53 -13 -14 -26
-34 -30 -44 -3 -10 -9 -17 -12 -14 -11 12 23 92 49 114 36 30 39 30 26 -3z
m-1321 -29 c20 -10 43 -18 50 -20 6 -1 25 -13 41 -26 16 -12 52 -35 80 -50 28
-16 51 -32 51 -37 0 -20 -37 -15 -87 12 -29 16 -53 26 -53 23 0 -3 23 -17 50
-31 46 -23 59 -45 27 -45 -32 0 -156 72 -192 111 -22 24 -32 37 -22 30 11 -9
17 -10 17 -2 0 6 -9 16 -20 23 -47 30 -3 38 58 12z m987 -14 c19 -38 20 -60 1
-40 -14 15 -31 70 -21 70 2 0 11 -13 20 -30z m250 20 c-3 -5 -2 -10 3 -10 6 0
-3 -33 -19 -72 -15 -40 -28 -87 -29 -105 0 -51 -18 -47 -25 6 -8 60 4 109 40
155 25 33 45 50 30 26z m933 -31 c-59 -74 -214 -172 -229 -147 -4 7 -5 16 -2
21 3 4 -1 8 -8 6 -59 -8 -44 13 48 68 38 22 80 43 96 47 15 3 27 11 27 16 0 5
6 7 13 4 7 -2 29 2 48 10 19 8 35 15 37 16 2 0 -12 -18 -30 -41z m-1258 10 c0
-6 -5 -7 -11 -3 -7 4 -6 -3 2 -17 7 -13 18 -42 25 -64 7 -22 13 -32 13 -22 1
10 -6 34 -14 54 -17 41 -12 56 9 27 19 -25 27 -77 19 -130 -8 -57 -19 -56 -28
4 -4 26 -16 68 -27 94 -20 46 -19 86 2 73 5 -3 10 -11 10 -16z m-362 -165 c30
-20 28 -45 -7 -78 -39 -38 -47 -80 -21 -123 23 -39 25 -47 9 -37 -7 4 -10 1
-7 -7 6 -19 130 -24 165 -5 l28 14 -1 -60 c-1 -47 -5 -64 -19 -74 -25 -18 -36
-18 -29 1 4 8 1 15 -5 15 -6 0 -11 12 -12 28 l-1 27 -12 -28 c-19 -42 -63 -69
-57 -34 1 5 -4 5 -10 1 -9 -5 -11 3 -6 29 6 36 -5 51 -16 23 -3 -8 -20 -22
-38 -31 -29 -15 -31 -16 -26 -1 4 11 1 16 -10 16 -15 0 -15 1 -1 13 9 6 19 23
23 36 6 21 5 23 -11 16 -11 -4 -27 -10 -36 -12 -10 -3 -15 -10 -11 -15 3 -6 0
-8 -8 -6 -8 3 -13 11 -11 17 1 7 -2 10 -8 6 -15 -9 -12 13 6 40 9 14 25 25 36
25 11 0 16 4 12 11 -3 6 -22 9 -40 7 -22 -3 -34 0 -34 8 0 7 -6 15 -12 18 -10
5 -10 7 0 12 6 3 10 9 7 14 -3 4 13 7 35 6 49 -1 51 9 5 24 -19 6 -33 16 -30
21 4 5 1 9 -4 9 -6 0 -11 7 -11 16 0 8 5 12 10 9 6 -4 21 0 34 9 22 14 26 14
47 -5 38 -33 33 -13 -8 28 -21 21 -44 52 -52 68 -7 17 -17 38 -22 48 -7 13 -5
17 8 18 16 1 16 2 2 6 -10 2 -20 14 -23 26 -3 14 21 -5 72 -56 42 -43 87 -84
100 -93z m314 78 c3 -58 -7 -107 -23 -107 -8 0 -14 -6 -14 -14 0 -15 -48 -24
-77 -15 -29 9 -20 21 12 16 23 -3 36 3 60 26 36 37 39 79 10 137 l-20 40 25
-28 c14 -15 26 -40 27 -55z m423 38 c-20 -38 -19 -84 1 -115 12 -18 13 -25 4
-25 -10 0 -10 -3 0 -15 8 -9 9 -15 2 -15 -15 0 -23 15 -29 58 -9 61 -6 87 12
115 23 36 29 34 10 -3z m-1019 -6 c22 -9 53 -27 71 -40 17 -13 36 -24 41 -24
4 0 19 -11 32 -25 27 -28 14 -32 -33 -10 -29 14 -30 14 -13 0 11 -8 23 -15 28
-15 4 0 8 -4 8 -10 0 -16 -42 -11 -75 8 -85 49 -95 57 -89 75 3 9 1 17 -5 17
-6 0 -15 9 -21 20 -14 25 2 26 56 4z m1649 7 c-20 -33 -86 -97 -121 -117 -42
-25 -84 -32 -84 -13 0 5 -4 7 -10 4 -19 -12 -10 12 13 32 45 41 102 73 130 73
15 0 30 7 33 15 4 8 15 15 26 15 10 0 17 -4 13 -9z m-767 -80 c-9 -49 -28 -78
-29 -45 0 18 -1 18 -9 -1 -8 -18 -9 -17 -9 7 -1 14 9 48 20 75 18 40 22 45 28
28 4 -10 4 -39 -1 -64z m-128 -24 c0 -16 -4 -26 -10 -22 -5 3 -10 1 -10 -4 0
-6 -4 -11 -9 -11 -13 0 -25 83 -16 111 7 22 8 22 26 -12 10 -19 18 -47 19 -62z
m630 50 c0 -2 -10 -12 -22 -23 l-23 -19 19 23 c18 21 26 27 26 19z m-740 -24
c0 -40 -22 -92 -54 -129 l-35 -39 25 49 c13 27 24 57 24 67 0 27 18 69 30 69
5 0 10 -8 10 -17z m338 -35 c6 -28 21 -68 31 -89 l19 -37 -21 6 c-20 5 -21 4
-7 -14 14 -18 14 -18 -3 -5 -9 8 -16 16 -13 18 2 3 -7 21 -20 40 -31 46 -34
133 -5 133 4 0 12 -23 19 -52z m961 22 c-61 -56 -212 -120 -279 -120 -18 0
-10 17 13 29 12 6 14 9 5 7 -10 -3 -18 0 -18 7 0 19 13 33 35 39 11 4 43 15
70 26 28 12 77 25 110 30 101 15 102 15 64 -18z m-1920 -28 c25 -16 54 -31 64
-35 9 -3 17 -13 17 -22 0 -19 -34 -19 -109 -1 -46 10 -56 17 -62 39 -4 15 -4
25 1 22 4 -3 16 -2 25 1 13 5 14 8 3 15 -11 7 -11 9 1 9 8 0 35 -13 60 -28z
m1606 18 c-3 -6 4 -10 17 -10 16 0 19 -3 10 -8 -7 -5 -10 -17 -6 -28 5 -16 4
-16 -5 -4 -6 9 -11 10 -11 3 0 -6 -21 -18 -47 -26 -75 -24 -103 -28 -103 -17
0 5 6 10 13 11 9 0 9 2 -1 6 -8 3 6 17 35 35 66 42 111 60 98 38z m-793 -62
c-7 -7 -12 -22 -12 -35 0 -13 -4 -23 -9 -23 -6 0 -6 12 -1 29 8 30 8 30 -38
34 -44 3 -43 4 13 5 46 2 56 -1 47 -10z m-112 -6 c0 -4 -10 -8 -21 -9 -12 -1
-29 -8 -38 -16 -21 -18 -41 -29 -41 -23 0 3 17 17 37 31 38 25 63 32 63 17z
m210 -34 c35 -32 37 -36 10 -16 -66 47 -78 51 -90 27 -11 -19 -10 -20 9 -10
17 10 20 9 15 -4 -7 -17 -30 -20 -39 -4 -8 12 22 49 39 49 6 -1 31 -19 56 -42z
m-136 15 c4 -10 4 -14 0 -10 -4 4 -16 0 -26 -10 -17 -15 -18 -15 -18 6 0 12 4
20 9 16 5 -3 12 -1 16 5 9 14 12 13 19 -7z m-62 -25 c-12 -12 -32 -2 -32 15 0
8 3 8 9 -1 6 -11 10 -10 16 5 5 13 9 14 12 5 3 -8 1 -18 -5 -24z m321 -4 c24
-31 71 -40 102 -20 30 20 35 20 35 1 0 -28 -47 -65 -82 -65 -47 0 -76 10 -82
27 -4 10 -2 13 8 10 23 -9 26 4 7 32 -10 14 -21 32 -26 40 -12 21 16 2 38 -25z
m-1129 -15 c10 0 27 7 37 17 15 13 30 15 84 9 36 -3 65 -11 65 -16 0 -5 -7 -9
-15 -9 -8 0 -12 -6 -9 -14 8 -20 -6 -25 -72 -27 -75 -1 -82 -1 -66 10 10 6 9
10 -8 14 -17 4 -20 1 -18 -16 3 -21 0 -22 -62 -20 -85 3 -196 20 -222 34 -29
16 -11 29 59 43 50 10 69 9 133 -7 41 -10 83 -18 94 -18z m1721 14 c10 -16 14
-25 10 -20 -5 4 -18 -1 -29 -12 -22 -19 -126 -36 -126 -20 0 5 -9 18 -20 29
-11 11 -19 20 -17 21 1 0 22 3 47 6 25 3 54 9 65 14 35 14 52 10 70 -18z m293
12 c50 -16 -51 -60 -170 -74 -135 -15 -135 -15 -115 7 10 10 17 23 17 28 0 16
160 52 210 47 25 -3 51 -6 58 -8z m-1249 -7 c-1 -23 -119 -117 -155 -124 -42
-8 -48 -26 -39 -123 13 -147 43 -240 103 -321 l27 -35 -25 16 c-31 20 -98 146
-106 199 -4 22 -9 38 -13 36 -3 -2 -8 52 -9 120 -4 121 -3 124 17 124 33 0 93
28 86 40 -4 6 -1 9 7 8 7 -2 12 4 10 12 -2 8 0 12 4 8 4 -4 22 6 41 22 36 32
53 38 52 18z m261 -34 c25 -25 65 -56 90 -69 52 -28 34 -33 -22 -7 -39 18
-128 96 -128 112 0 19 16 9 60 -36z m-375 -4 c-16 -16 -31 -27 -34 -24 -5 4
48 53 58 54 3 0 -8 -13 -24 -30z m-475 -55 c0 -8 6 -15 13 -15 24 -1 -18 -18
-68 -28 -27 -5 -57 -11 -65 -13 -8 -2 -14 2 -12 9 1 8 -2 11 -7 8 -5 -4 -12
-2 -16 3 -3 5 3 14 12 20 10 6 14 11 8 12 -17 3 58 16 98 18 27 1 37 -3 37
-14z m1518 -5 c23 -21 28 -31 15 -28 -5 0 -16 -2 -26 -7 -19 -8 -134 -1 -144
9 -4 3 2 15 13 25 27 28 112 28 142 1z m-1678 1 c0 -5 -12 -14 -27 -19 -24 -9
-25 -11 -7 -11 12 -1 27 -7 33 -15 10 -12 -2 -15 -73 -21 -101 -9 -213 -2
-228 13 -14 14 9 45 28 38 6 -2 31 2 55 9 50 15 219 20 219 6z m1943 -2 c30
-7 43 -16 44 -28 3 -35 -95 -49 -236 -35 -58 7 -61 8 -46 24 12 13 13 20 5 25
-9 6 -9 10 1 16 20 12 182 11 232 -2z m-1053 -29 c11 -11 20 -30 20 -42 0 -23
-1 -22 -13 2 -10 21 -21 25 -57 27 -25 1 -48 -4 -52 -10 -11 -18 -10 -67 2
-67 6 0 9 15 8 33 -3 31 -2 32 35 32 21 0 43 -5 49 -12 10 -12 2 -53 -10 -52
-23 4 -54 -2 -48 -8 4 -5 11 -7 14 -6 10 2 32 -18 32 -28 0 -5 -9 -9 -20 -9
-13 0 -20 -7 -20 -19 0 -16 -7 -19 -42 -17 -24 1 -49 -4 -56 -11 -18 -17 -47
-16 -61 1 -8 10 -8 16 3 25 8 7 12 21 8 33 -5 20 -2 21 38 15 28 -3 39 -2 32
5 -5 5 -25 8 -43 6 -28 -2 -35 -8 -37 -28 -2 -14 -9 -31 -14 -37 -14 -18 6
-41 40 -46 l27 -4 -27 -2 c-35 -1 -68 30 -68 64 0 14 12 37 26 52 20 20 32 24
55 19 l29 -6 -15 30 c-20 39 -19 48 4 24 10 -10 16 -24 14 -30 -2 -6 3 -17 12
-24 13 -11 15 -10 14 6 -6 65 21 104 71 104 17 0 39 -9 50 -20z m-710 -20 c0
-5 -6 -10 -12 -10 -10 0 -10 -2 0 -9 11 -6 7 -13 -15 -28 -59 -40 -116 -52
-97 -21 4 7 2 8 -4 4 -16 -10 -15 12 1 27 6 7 35 20 62 29 62 20 65 20 65 8z
m1463 -26 c23 -8 18 -23 -18 -48 -20 -15 -29 -18 -32 -8 -3 6 -10 12 -16 12
-6 0 -21 10 -33 21 -18 17 -21 26 -14 39 10 19 11 19 113 -16z m-684 4 c-15
-30 -40 -58 -51 -58 -13 0 11 42 36 62 27 23 29 22 15 -4z m-929 -8 c0 -5 -8
-10 -17 -11 -15 0 -15 -2 2 -8 18 -7 18 -9 -10 -23 -17 -9 -58 -24 -92 -33
-35 -10 -68 -24 -74 -31 -14 -18 -70 -18 -93 -1 -22 16 -13 40 22 63 l27 17
-20 -25 c-13 -16 -11 -15 7 4 17 17 39 28 55 29 16 0 60 6 98 13 90 18 95 18
95 6z m1770 -6 c50 -6 73 -14 101 -36 20 -16 42 -28 49 -26 26 6 20 -22 -9
-36 -41 -22 -83 -20 -111 4 -13 11 -35 23 -49 26 -85 19 -102 30 -108 68 -3
16 2 17 29 13 18 -4 62 -9 98 -13z m-1600 -21 c0 -4 -10 -17 -22 -30 -29 -31
-16 -29 18 2 47 43 50 27 4 -20 -24 -25 -50 -45 -57 -45 -7 0 -13 -6 -13 -12
0 -17 -20 12 -20 29 0 18 60 83 76 83 8 0 14 -3 14 -7z m1363 -26 c33 -29 52
-57 28 -43 -5 3 -11 -1 -15 -9 -3 -8 -12 -15 -21 -15 -8 0 -15 -5 -15 -12 0
-6 -3 -9 -6 -5 -3 3 -4 7 -2 10 2 2 -15 24 -36 47 -26 29 -35 45 -27 48 7 2
24 -7 38 -22 27 -30 29 -30 39 -13 4 6 3 9 -1 4 -9 -7 -45 20 -45 35 0 17 26
7 63 -25z m-539 7 c9 -8 16 -19 16 -24 0 -5 3 -17 7 -27 6 -17 5 -17 -15 1
-12 10 -19 23 -15 29 3 5 -2 16 -12 24 -11 7 -14 13 -8 13 7 0 19 -7 27 -16z
m-31 -3 c4 -1 7 -8 7 -16 0 -8 6 -24 13 -36 10 -17 9 -22 -7 -35 -31 -22 -42
-17 -53 24 -16 54 -13 69 11 66 12 -1 24 -3 29 -3z m-953 -10 c0 -5 -34 -28
-76 -52 -41 -24 -70 -45 -64 -47 6 -2 19 2 28 10 9 8 41 29 71 47 64 39 93 28
32 -12 -22 -15 -43 -27 -45 -27 -3 0 -28 -13 -55 -29 -55 -33 -121 -50 -121
-32 0 6 4 11 9 11 5 0 16 15 25 34 14 29 28 39 89 61 39 15 76 32 82 36 12 12
25 11 25 0z m1742 -40 c37 -18 70 -32 74 -31 11 3 24 -23 24 -46 0 -37 -65
-48 -93 -16 -9 10 -38 29 -64 42 -27 13 -60 33 -76 44 -22 16 -25 22 -12 28
10 6 33 -3 72 -29 58 -38 93 -56 93 -48 0 2 -31 23 -70 46 -38 22 -67 45 -65
50 7 10 25 3 117 -40z m-1541 0 c-17 -31 -13 -37 9 -13 19 21 40 29 40 16 0
-12 -56 -74 -67 -74 -6 0 -14 -6 -16 -12 -3 -8 -6 -6 -6 5 -1 9 -5 17 -10 17
-11 0 15 57 38 83 18 22 27 7 12 -22z m1255 -12 c15 -31 10 -59 -12 -59 -8 0
-14 -4 -14 -10 0 -5 -5 -10 -11 -10 -6 0 -9 6 -6 14 3 8 -6 27 -20 42 l-26 28
22 10 c11 5 21 16 21 24 0 20 27 -2 46 -39z m-1159 14 c-2 -10 -8 -27 -11 -38
-5 -15 -3 -14 5 3 13 24 37 24 30 1 -2 -8 -6 -29 -9 -47 -3 -24 -11 -36 -29
-43 -33 -12 -36 -12 -51 11 -10 16 -9 25 8 52 11 18 20 41 20 50 0 15 12 25
34 27 4 1 6 -7 3 -16z m-296 -64 c-28 -26 -51 -53 -51 -60 0 -7 25 11 55 41
41 40 55 50 55 36 0 -24 -137 -156 -162 -156 -11 0 -17 4 -14 9 4 5 1 11 -4
13 -7 2 -3 18 8 42 20 40 154 151 161 132 2 -5 -19 -30 -48 -57z m1368 35 c7
-20 10 -50 7 -68 -5 -28 -10 -33 -34 -32 -23 1 -27 6 -30 36 -2 19 -7 39 -12
44 -10 10 -2 36 10 36 5 0 12 -9 15 -21 4 -11 9 -19 11 -16 3 2 0 16 -5 31 -9
22 -8 26 7 26 12 0 23 -13 31 -36z m239 1 c15 -14 42 -32 60 -41 19 -9 41 -29
51 -45 9 -16 19 -29 24 -29 14 0 7 -18 -20 -44 -14 -15 -29 -25 -33 -24 -4 2
-36 36 -72 76 -63 70 -65 75 -55 103 6 16 13 29 15 29 1 0 15 -11 30 -25z
m-1198 -35 c0 -26 -8 -48 -23 -66 -22 -25 -24 -26 -41 -9 -13 14 -16 27 -10
59 8 53 12 59 35 53 11 -3 19 -1 19 5 0 5 5 6 10 3 6 -3 10 -24 10 -45z m717
13 c-3 -10 -5 -4 -5 12 0 17 2 24 5 18 2 -7 2 -21 0 -30z m127 27 c22 -8 26
-16 26 -47 -1 -23 -9 -48 -21 -62 -19 -23 -20 -23 -39 -6 -22 20 -27 74 -10
106 12 22 11 22 44 9z m-264 -25 c-7 -8 -17 -15 -23 -15 -6 0 -2 8 9 19 22 21
33 19 14 -4z m180 12 c17 5 18 1 13 -33 -6 -45 -63 -115 -63 -78 0 11 5 25 12
32 7 7 11 31 10 55 -1 23 1 37 4 31 3 -7 14 -10 24 -7z m-703 -25 c2 -15 4
-38 5 -51 2 -13 -3 -26 -9 -28 -8 -3 -13 4 -13 16 0 12 -4 21 -10 21 -5 0 -10
16 -10 35 0 27 4 35 18 35 11 0 18 -9 19 -28z m-366 -24 c-11 -18 -30 -34 -41
-36 -19 -3 -21 -9 -18 -48 3 -46 -9 -57 -32 -29 -15 18 -11 29 36 93 23 30 47
52 57 52 18 0 18 -2 -2 -32z m1461 -3 c73 -87 96 -146 63 -159 -11 -4 -15 1
-15 18 0 32 -10 39 -32 19 -10 -9 -21 -14 -24 -11 -3 3 1 12 9 19 11 10 11 20
3 44 -6 16 -16 33 -23 38 -7 4 -10 13 -7 20 2 7 -5 18 -16 25 -23 14 -25 5 -5
-22 22 -29 19 -33 -32 -39 -37 -4 -50 -1 -60 11 -11 15 -11 15 -7 -4 3 -11 -1
-26 -9 -33 -23 -19 -32 5 -12 35 12 19 23 24 43 22 20 -2 31 4 44 23 21 34 49
32 80 -6z m-1422 -5 c0 -19 -36 -47 -47 -36 -8 7 25 56 37 56 6 0 10 -9 10
-20z m556 -2 c-10 -5 -24 -7 -32 -4 -9 3 -12 1 -9 -4 3 -6 0 -10 -9 -10 -8 0
-23 -3 -33 -6 -13 -5 -11 -2 5 11 27 20 73 34 86 27 5 -3 1 -9 -8 -14z m254
13 c0 -5 10 -12 23 -14 14 -3 8 -5 -15 -6 -35 -1 -54 9 -41 23 10 9 33 7 33
-3z m167 -23 c-3 -8 -6 -5 -6 6 -1 11 2 17 5 13 3 -3 4 -12 1 -19z m-917 -9
c0 -5 4 -8 9 -5 16 10 32 -20 23 -43 l-8 -22 -24 26 c-13 14 -29 25 -36 25 -8
0 -11 6 -8 15 7 17 44 21 44 4z m469 -26 c-9 -23 -7 -30 10 -44 12 -10 21 -20
21 -25 0 -4 8 -13 18 -21 14 -11 12 -12 -18 0 -41 16 -57 49 -41 90 6 15 13
27 16 27 2 0 0 -12 -6 -27z m106 -38 c-3 -11 -7 -27 -9 -34 -1 -8 -9 -17 -17
-19 -11 -3 -11 -1 1 7 12 9 10 11 -12 11 -18 0 -28 5 -28 14 0 8 -9 18 -20 21
-25 8 -25 20 0 45 l20 20 35 -22 c27 -18 34 -28 30 -43z m159 49 c23 -23 20
-54 -4 -54 -11 0 -23 -7 -27 -16 -4 -11 -13 -14 -30 -9 -18 4 -23 3 -17 -7 4
-7 3 -10 -1 -6 -21 19 -14 63 13 85 32 27 45 28 66 7z m173 -16 c-3 -8 -6 -5
-6 6 -1 11 2 17 5 13 3 -3 4 -12 1 -19z m-647 -33 c0 -49 -11 -65 -44 -65 -17
0 -42 -7 -54 -16 -26 -18 -25 -20 -11 46 6 27 14 48 19 45 4 -3 18 4 31 14 18
15 27 16 41 7 10 -6 18 -20 18 -31z m784 8 c10 4 16 -7 21 -41 3 -26 9 -55 12
-66 3 -12 1 -16 -6 -12 -7 5 -9 -3 -5 -22 5 -25 2 -31 -15 -37 -25 -7 -50 3
-32 14 7 5 2 16 -14 31 l-26 24 -25 -26 c-27 -27 -45 -110 -27 -121 5 -3 32 5
61 19 28 13 55 24 59 23 18 -3 31 2 53 21 18 16 25 17 32 8 15 -24 8 -34 -34
-53 -24 -10 -66 -28 -94 -40 -28 -13 -55 -28 -58 -34 -4 -6 -12 -9 -17 -6 -5
4 -9 -4 -9 -15 0 -27 -31 -74 -79 -119 -34 -33 -40 -35 -104 -34 -54 0 -70 4
-82 19 -15 22 -27 15 -30 -18 -4 -37 -4 -38 -17 -38 -6 0 -21 -8 -32 -19 -43
-38 -166 -58 -166 -26 0 8 6 15 14 15 7 0 19 7 26 15 9 11 22 14 42 10 17 -4
28 -2 28 4 0 6 6 11 13 11 8 0 20 22 27 51 8 28 26 65 41 82 15 17 25 36 23
42 -6 15 60 77 88 81 13 2 35 7 51 10 15 4 41 1 57 -6 30 -12 41 -30 19 -30
-7 0 -17 -8 -24 -17 -11 -14 -15 -15 -28 -4 -10 7 -25 10 -39 6 -33 -10 -78
-55 -78 -79 0 -10 -7 -27 -16 -37 -29 -32 5 -49 39 -20 10 8 28 10 51 6 28 -6
39 -3 58 15 21 21 21 22 3 15 -39 -14 -60 -15 -30 -1 17 8 40 13 53 11 17 -3
22 1 23 18 3 75 12 134 24 157 8 15 16 40 19 55 7 36 27 57 60 60 13 2 29 6
34 9 4 3 21 -2 36 -10 39 -19 46 -17 17 6 -13 11 -36 20 -51 20 -45 0 -56 58
-17 91 22 18 22 18 39 -2 10 -12 24 -19 32 -16z m123 11 c8 -21 -6 -64 -20
-64 -7 0 -23 -9 -35 -20 l-22 -20 -5 27 c-4 16 -8 36 -9 45 -7 31 20 55 54 50
17 -2 34 -11 37 -18z m-1195 -2 c-1 -7 5 -12 14 -10 11 2 24 -11 36 -34 24
-46 13 -72 -12 -30 -22 35 -64 48 -105 32 -25 -9 -31 -8 -42 6 -18 25 -16 33
10 38 12 3 31 7 42 10 33 7 60 1 57 -12z m128 -1 c-5 -11 -10 -23 -10 -28 1
-4 7 4 16 19 9 17 20 25 29 22 10 -4 12 -11 6 -22 -5 -10 -12 -43 -15 -74 -9
-80 -25 -119 -23 -54 2 45 0 50 -30 65 -35 17 -38 26 -24 63 6 15 18 24 35 26
23 2 25 -1 16 -17z m1235 -25 c-13 -20 -21 -23 -43 -17 -41 10 -69 2 -92 -26
-11 -14 -23 -24 -26 -20 -7 6 22 63 36 72 11 7 58 16 97 18 12 1 25 6 29 10
16 16 15 -12 -1 -37z m-570 5 c-10 -33 -34 -51 -68 -51 l-32 0 25 15 c14 8 35
19 48 24 12 6 22 18 22 27 0 10 3 15 6 11 3 -3 3 -15 -1 -26z m-459 -3 c4 -15
1 -26 -12 -36 -14 -10 -15 -16 -6 -19 13 -5 7 -23 -9 -23 -6 0 -7 5 -4 10 3 6
2 10 -3 10 -5 0 -5 17 1 40 12 45 22 50 33 18z m314 0 c0 -13 -3 -34 -7 -47
-6 -23 -7 -23 -14 -5 -13 34 -10 74 6 74 9 0 15 -9 15 -22z m303 -18 c-3 -11
-9 -20 -14 -20 -10 0 -11 12 -3 34 9 22 23 10 17 -14z m-1159 -15 c-4 -8 -8
-15 -10 -15 -2 0 -4 7 -4 15 0 8 4 15 10 15 5 0 7 -7 4 -15z m22 -22 c-11 -11
-17 4 -9 23 7 18 8 18 11 1 2 -10 1 -21 -2 -24z m1151 5 c-3 -7 -5 -2 -5 12 0
14 2 19 5 13 2 -7 2 -19 0 -25z m421 8 c37 -1 42 -20 11 -37 -16 -8 -28 -8
-46 0 -66 30 -112 -1 -77 -54 15 -22 15 -28 4 -35 -11 -7 -20 3 -37 38 l-23
47 34 32 c32 30 37 31 68 21 18 -6 48 -12 66 -12z m-483 -7 c-5 -16 -4 -19 5
-14 20 13 31 -18 13 -37 -23 -26 -34 -22 -27 8 5 19 4 25 -5 20 -8 -5 -8 -1 1
18 14 31 22 34 13 5z m-532 -56 c-7 -17 -18 -16 -32 1 -10 11 -10 20 0 37 l12
22 12 -23 c7 -13 11 -30 8 -37z m-258 36 c4 -6 -2 -20 -13 -32 -25 -28 -52
-81 -52 -103 0 -19 -28 -54 -43 -54 -11 0 -1 59 20 112 8 21 21 38 27 38 7 0
19 11 26 25 14 27 25 31 35 14z m1119 -69 c31 -58 27 -130 -6 -130 -6 0 -9 3
-5 6 3 3 -1 24 -9 46 -18 51 -18 53 2 37 14 -12 14 -9 -1 26 -9 22 -19 46 -22
52 -3 8 -14 11 -29 7 -28 -7 -32 10 -6 25 13 8 22 5 40 -17 13 -15 29 -38 36
-52z m-948 55 c10 -8 14 -15 7 -15 -6 0 -9 -9 -6 -22 l6 -23 -26 23 -25 24
-13 -24 c-6 -12 -21 -31 -31 -42 -17 -15 -22 -16 -29 -5 -5 9 -2 16 10 21 19
7 37 38 21 38 -5 0 -14 -8 -19 -17 -8 -14 -10 -15 -11 -3 0 17 39 45 57 42 6
-1 14 2 18 8 8 14 18 13 41 -5z m1204 6 c0 -12 -46 -48 -71 -56 -13 -5 -18
-12 -14 -24 10 -33 -112 -70 -131 -40 -9 15 15 29 53 29 25 0 33 5 41 29 6 16
20 32 31 36 12 3 21 10 21 15 0 5 12 11 28 13 15 2 30 5 35 6 4 0 7 -3 7 -8z
m-1124 -117 c7 -33 14 -77 14 -99 0 -38 19 -79 44 -98 7 -5 3 -14 -11 -26 -12
-10 -19 -21 -16 -25 4 -3 2 -6 -4 -6 -5 0 -20 11 -33 25 -13 14 -18 25 -12 25
6 0 14 -5 17 -10 5 -8 11 -7 21 0 11 10 10 17 -8 40 -15 21 -23 51 -28 107 -4
43 -14 95 -24 117 -21 50 -20 55 5 29 12 -11 27 -47 35 -79z m794 58 c0 -15
-2 -15 -10 -2 -13 20 -13 33 0 25 6 -3 10 -14 10 -23z m-1059 -15 c-13 -12
-20 -15 -16 -7 14 26 28 41 33 35 3 -3 -5 -16 -17 -28z m300 -19 c1 -52 1 -52
11 -19 9 32 10 33 26 17 16 -16 16 -18 -6 -36 -30 -24 -52 -16 -52 20 0 16 -5
32 -10 35 -8 5 -7 11 1 21 21 25 29 15 30 -38z m486 -4 c-10 -33 -12 -34 -19
-14 -12 31 1 74 17 60 10 -8 10 -19 2 -46z m143 12 c11 -31 -1 -43 -17 -15
l-13 24 5 -25 c4 -18 0 -28 -16 -38 -20 -13 -21 -12 -14 19 15 66 37 81 55 35z
m-752 12 c16 -16 16 -71 0 -65 -7 2 -13 14 -12 27 1 22 0 22 -12 5 -19 -25
-27 -14 -15 19 12 29 21 32 39 14z m-103 -37 c5 -5 31 -16 58 -26 26 -10 47
-22 47 -27 0 -5 5 -6 10 -3 6 4 10 -7 10 -25 0 -22 -4 -31 -12 -27 -7 3 -42
17 -78 32 -36 15 -77 33 -92 39 -31 12 -33 18 -16 45 9 16 16 17 37 9 14 -5
30 -13 36 -17z m156 -7 c4 -16 9 -64 11 -107 3 -77 3 -78 -14 -57 -13 16 -18
40 -18 89 0 36 -3 77 -7 90 -4 17 -2 22 8 19 7 -2 16 -18 20 -34z m519 -18
c-8 -8 -14 -7 -20 4 -13 20 -13 33 0 25 6 -3 10 2 11 12 0 14 3 12 10 -6 6
-16 6 -28 -1 -35z m-250 0 c0 -6 -5 -4 -11 4 -8 12 -9 10 -4 -7 5 -17 2 -23
-10 -23 -9 0 -14 4 -10 9 3 5 1 13 -5 16 -8 5 -7 11 1 21 9 11 15 11 25 3 8
-6 14 -17 14 -23z m115 4 c-6 -9 -10 -9 -16 1 -6 10 -9 11 -9 2 0 -7 -5 -13
-12 -13 -6 0 -3 9 7 20 19 21 44 12 30 -10z m-826 1 c13 -7 41 -11 62 -9 40 4
52 -5 23 -16 -33 -12 -100 -5 -131 14 -18 11 -33 22 -33 25 0 8 55 -1 79 -14z
m586 -2 c-10 -15 -25 -10 -19 6 4 8 10 12 15 9 5 -3 7 -10 4 -15z m975 16 c0
-7 -60 -36 -94 -46 -32 -9 -76 -2 -76 12 0 5 19 9 43 9 23 1 53 7 67 15 24 14
60 20 60 10z m-826 -49 c-6 -26 -18 -33 -29 -17 -3 5 -1 12 5 16 5 3 10 16 10
28 0 15 3 18 11 10 5 -5 7 -22 3 -37z m38 26 c3 -11 0 -19 -8 -19 -15 0 -19
19 -7 30 9 10 10 9 15 -11z m148 8 c0 -5 -5 -10 -11 -10 -5 0 -7 5 -4 10 3 6
8 10 11 10 2 0 4 -4 4 -10z m394 -25 c5 -22 4 -26 -4 -15 -5 8 -10 24 -10 34
0 26 6 18 14 -19z m-1129 16 c3 -5 1 -12 -5 -16 -5 -3 -10 1 -10 9 0 18 6 21
15 7z m460 -23 c42 -19 29 -26 -42 -22 -55 2 -60 2 -26 -5 23 -4 51 -15 61
-24 10 -9 29 -17 41 -17 18 0 21 4 16 23 -6 20 -4 20 19 -6 14 -15 26 -32 26
-38 0 -10 -83 -13 -93 -3 -4 4 -21 8 -39 9 -29 3 -31 2 -14 -10 17 -13 17 -14
-2 -24 -28 -15 -81 7 -89 37 -7 30 3 39 24 20 15 -13 103 -22 103 -11 0 1 -14
10 -31 18 -22 12 -34 13 -43 5 -10 -7 -19 -5 -36 8 -24 20 -20 48 6 38 8 -3
24 -1 36 4 32 12 53 12 83 -2z m-385 -34 c0 -14 -4 -34 -10 -44 -11 -20 1 -34
38 -43 17 -4 37 4 68 26 47 33 48 33 58 1 14 -46 -150 -90 -183 -50 -10 11 -8
15 6 19 15 3 13 6 -9 15 -30 12 -38 32 -13 32 8 0 19 9 25 20 9 16 8 20 -5 20
-8 0 -15 -8 -16 -17 0 -12 -2 -13 -6 -5 -5 13 23 52 39 52 4 0 8 -12 8 -26z
m504 -10 c-21 -32 -25 -30 -11 5 6 17 14 28 19 25 4 -3 1 -16 -8 -30z m492 28
c27 -18 35 -51 19 -81 -22 -43 -53 -61 -107 -61 -70 0 -100 17 -96 54 2 20 9
31 18 31 10 0 14 -8 12 -26 -2 -22 3 -29 29 -38 48 -17 69 -12 27 6 -21 8 -38
19 -38 24 0 12 11 11 57 -5 51 -18 67 -9 53 28 -10 27 -4 76 9 76 3 0 11 -4
17 -8z m-938 -55 c-2 -27 -7 -32 -28 -32 -17 0 -24 5 -21 15 2 8 6 27 9 42 4
24 7 26 24 17 14 -8 18 -19 16 -42z m896 5 c6 -41 5 -43 -16 -40 -30 4 -38 56
-12 75 21 16 20 18 28 -35z m-860 -9 c-8 -9 -18 -12 -22 -8 -4 4 -1 10 6 12 6
3 10 9 7 14 -4 5 1 6 9 3 14 -5 14 -8 0 -21z m629 -10 c-3 -8 -8 -12 -10 -9
-7 7 -117 -46 -126 -61 -12 -20 -27 -16 -27 7 0 11 7 20 15 20 8 0 15 4 15 9
0 9 56 36 76 36 6 0 19 8 29 18 13 14 20 15 26 6 4 -7 5 -18 2 -26z m170 17
c-4 -17 -8 -18 -26 -8 -21 11 -21 11 -2 19 31 12 34 11 28 -11z m-254 -4 c-2
-2 -15 -9 -29 -15 -24 -11 -24 -11 -6 3 16 13 49 24 35 12z m-179 -52 c0 -17
-45 -44 -73 -44 -14 0 -36 -9 -50 -20 -24 -19 -57 -72 -57 -92 0 -4 -11 -26
-25 -49 -27 -41 -44 -51 -109 -63 -29 -6 -37 -4 -33 6 2 7 10 12 16 11 6 -2
11 2 11 8 0 7 9 9 21 6 19 -5 52 15 55 32 3 26 19 69 29 81 7 8 15 27 19 43 3
15 13 27 22 27 8 0 12 5 9 10 -3 6 2 13 12 17 10 4 23 12 28 19 18 22 125 29
125 8z m-170 -14 c0 -5 -2 -10 -4 -10 -3 0 -8 5 -11 10 -3 6 -1 10 4 10 6 0
11 -4 11 -10z m-115 -20 c11 -18 -4 -47 -31 -58 -36 -17 -38 -15 -20 13 9 13
16 31 16 40 0 17 25 21 35 5z m659 -22 c20 -39 20 -38 -3 -38 -10 0 -24 7 -32
16 -11 14 -13 14 -21 0 -5 -9 -16 -16 -24 -16 -9 0 -3 12 18 35 18 19 36 35
40 35 3 0 14 -14 22 -32z m-624 -23 c10 -13 9 -15 -8 -15 -15 0 -20 5 -16 15
4 8 7 15 9 15 1 0 8 -7 15 -15z m218 -2 c-2 -9 -12 -17 -22 -19 -11 -1 -33
-12 -49 -24 -20 -15 -32 -19 -39 -12 -7 7 7 20 43 41 62 35 72 37 67 14z
m-200 -40 c2 -7 -3 -13 -12 -13 -8 0 -19 -6 -23 -12 -4 -7 -19 -13 -33 -13
-19 0 -29 -9 -41 -35 -10 -19 -15 -38 -12 -42 2 -5 0 -8 -6 -8 -5 0 -13 5 -16
10 -4 6 -11 8 -16 5 -15 -10 -10 12 6 25 8 7 13 16 10 20 -8 12 46 72 60 66 6
-2 18 0 26 5 19 12 51 7 57 -8z m311 -25 c-14 -26 -9 -30 48 -34 39 -3 42 -2
17 5 -40 10 -56 20 -49 31 3 6 15 6 29 0 13 -5 26 -6 29 -3 3 3 18 -4 33 -16
l26 -21 -27 -10 c-35 -13 -72 -12 -117 4 -33 12 -35 11 -27 -3 16 -30 60 -186
66 -233 6 -53 -7 -79 -36 -71 -15 4 -19 19 -25 80 -3 42 -6 98 -6 124 0 26 -4
50 -9 53 -5 4 -12 -46 -16 -114 -7 -107 -10 -122 -29 -135 -11 -8 -24 -15 -28
-15 -17 0 -7 82 22 175 17 54 30 108 30 120 0 12 6 28 14 34 8 6 19 25 26 41
10 24 15 28 26 19 10 -8 11 -16 3 -31z m291 27 c10 -12 9 -15 -6 -15 -17 0
-17 -1 2 -14 10 -8 16 -18 12 -22 -4 -4 -14 -2 -21 5 -8 6 -21 9 -29 6 -9 -4
-23 2 -33 11 -16 16 -16 18 7 30 31 18 53 17 68 -1z m-90 -40 c22 -58 27 -63
71 -75 51 -14 41 -30 -20 -30 -37 0 -52 5 -67 22 -20 23 -20 23 31 2 8 -3 15
-1 15 5 0 6 -7 11 -15 11 -9 0 -25 19 -35 43 -15 33 -18 35 -13 12 6 -26 5
-28 -8 -15 -24 24 -31 52 -17 62 24 15 42 3 58 -37z m-755 -9 c1 -24 -1 -33
-7 -24 -7 10 -12 9 -24 -7 -15 -19 -16 -18 -9 20 4 22 9 43 12 48 11 18 26 -1
28 -37z m675 28 c0 -12 -4 -12 -20 -4 -11 6 -20 12 -20 13 0 2 9 3 20 4 12 1
20 -4 20 -13z m346 -1 c3 -10 10 -26 15 -36 12 -22 2 -38 -11 -18 -4 8 -14 12
-21 9 -10 -4 -14 3 -13 23 2 38 2 39 14 39 6 0 13 -8 16 -17z m-123 -27 c15
-32 15 -35 -1 -50 -16 -14 -19 -13 -30 4 -14 24 -15 30 -3 30 5 0 11 -6 14
-12 2 -7 3 -3 1 9 -2 11 -7 28 -10 37 -12 31 13 16 29 -18z m-943 9 c0 -5 -40
-78 -47 -85 -3 -3 -1 13 3 35 6 37 18 54 37 55 4 0 7 -2 7 -5z m1120 -25 c0
-10 3 -27 6 -37 6 -16 5 -16 -9 -3 -9 8 -19 27 -22 43 -6 22 -4 26 9 21 9 -3
16 -14 16 -24z m-1025 10 c3 -5 1 -10 -4 -10 -6 0 -11 5 -11 10 0 6 2 10 4 10
3 0 8 -4 11 -10z m742 -6 c3 -8 11 -13 18 -10 15 5 53 -19 44 -28 -10 -11 -69
15 -80 35 -7 13 -6 19 1 19 6 0 13 -7 17 -16z m-574 0 c3 -4 -10 -15 -31 -25
-44 -23 -42 -23 -42 -4 0 8 9 15 19 15 11 0 23 5 26 10 7 11 19 13 28 4z m794
-36 c-3 -8 -6 -5 -6 6 -1 11 2 17 5 13 3 -3 4 -12 1 -19z m-952 2 c3 -5 2 -10
-4 -10 -5 0 -16 -3 -25 -6 -11 -4 -16 -1 -16 10 0 18 35 22 45 6z m915 -4
c-25 -15 -45 -12 -35 5 4 5 18 9 33 9 l27 -1 -25 -13z m-645 -6 c3 -5 2 -10
-3 -10 -20 0 -62 -54 -62 -79 0 -32 17 -52 36 -44 8 3 14 0 14 -5 0 -16 -41
-42 -65 -41 -20 0 -20 0 0 9 15 6 11 7 -17 7 -21 -1 -38 -3 -38 -5 0 -28 62
-74 88 -65 7 3 11 -1 10 -9 -2 -7 3 -12 10 -10 8 1 11 -2 8 -7 -4 -5 0 -12 6
-15 7 -3 2 -3 -12 0 -14 3 -43 -2 -64 -11 -77 -33 -126 -1 -126 80 0 43 -18
46 -26 5 -4 -16 -10 -27 -14 -25 -5 3 -6 -3 -3 -14 10 -39 -15 -29 -31 13 -24
62 -10 96 39 96 46 0 75 15 75 40 0 11 6 20 14 20 8 0 23 3 33 7 14 5 13 0 -7
-22 l-25 -28 25 18 c14 10 41 38 60 61 34 42 62 54 75 34z m117 -7 c-5 -10
-23 -48 -40 -85 -18 -37 -32 -84 -32 -104 0 -48 28 -94 57 -94 34 0 28 -15
-13 -35 -34 -16 -39 -16 -80 0 -51 19 -71 41 -30 33 20 -4 26 -1 26 13 0 9 2
23 3 31 2 7 2 10 0 5 -3 -4 -16 2 -30 13 -14 11 -36 20 -48 20 -12 0 -27 6
-33 13 -9 10 -4 12 23 9 26 -3 40 2 59 22 39 38 31 65 -16 57 -5 0 -8 9 -8 22
0 24 28 56 67 76 39 20 38 12 -7 -34 -24 -24 -41 -47 -38 -50 2 -3 24 18 48
46 30 36 48 49 61 46 11 -3 19 -1 19 4 0 5 4 9 10 9 5 0 6 -8 2 -17z m179 3
c13 8 77 -33 95 -62 20 -29 11 -44 -21 -38 -30 5 -32 -7 -8 -47 19 -31 50 -45
84 -36 16 4 18 3 8 -9 -6 -8 -22 -14 -34 -14 -33 0 -75 -37 -75 -66 0 -22 3
-24 28 -18 24 6 25 5 14 -8 -21 -26 -69 -41 -106 -34 -35 7 -72 36 -45 36 23
0 69 49 69 73 -1 40 -21 110 -46 160 -32 65 -32 79 2 67 14 -6 30 -8 35 -4z
m107 -24 c33 -33 37 -41 31 -71 -4 -19 -13 -38 -21 -43 -9 -7 -3 -8 17 -3 17
3 36 6 43 7 16 2 15 5 -8 38 -13 18 -16 31 -10 35 5 3 10 0 10 -8 0 -7 12 -24
27 -38 l27 -24 -22 31 c-17 26 -19 33 -8 37 18 7 26 -1 26 -25 0 -22 44 -42
76 -34 23 6 54 -16 54 -37 -1 -7 -7 -34 -14 -62 -12 -45 -14 -48 -25 -28 -6
12 -11 30 -11 40 0 20 -18 43 -32 43 -5 0 -6 -11 -2 -24 3 -13 -1 -39 -10 -59
-19 -46 -51 -55 -111 -32 -25 9 -54 14 -66 10 -18 -6 -19 -5 -10 13 6 11 25
23 43 27 36 8 78 41 78 62 0 9 -12 11 -46 6 -39 -5 -49 -3 -60 12 -12 16 -11
20 9 29 37 19 32 49 -13 89 -44 40 -47 47 -25 47 8 0 32 -17 53 -38z m195 18
c3 -11 3 -20 1 -20 -2 0 -8 9 -14 20 -6 11 -7 20 -2 20 6 0 12 -9 15 -20z
m-959 -11 c-4 -8 1 -9 17 -4 27 8 24 3 -6 -13 -17 -9 -21 -7 -22 9 -1 10 3 19
8 19 6 0 7 -5 3 -11z m1063 4 c-9 -2 -14 -9 -10 -15 4 -8 0 -9 -11 -5 -10 4
-21 7 -24 8 -13 1 33 18 48 17 10 0 9 -2 -3 -5z m-978 -17 c-11 -11 -143 -65
-147 -61 -6 6 141 74 147 69 2 -2 2 -6 0 -8z m1036 -58 c7 -7 2 -8 -15 -3 -51
16 -130 54 -130 64 0 11 128 -43 145 -61z m-995 46 c0 -8 -4 -12 -10 -9 -5 3
-10 10 -10 16 0 5 5 9 10 9 6 0 10 -7 10 -16z m340 -60 c-12 -32 -22 -81 -22
-107 -2 -51 -19 -51 -20 -1 -1 33 6 60 35 127 27 65 32 53 7 -19z m180 -101
c0 -60 -14 -72 -18 -15 -1 20 -9 62 -18 92 -26 93 -25 97 6 35 22 -44 30 -74
30 -112z m-510 147 c6 9 10 10 10 3 0 -11 -29 -33 -43 -33 -3 0 -7 9 -10 19
-4 17 -2 18 14 8 16 -10 21 -9 29 3z m825 -9 c-8 -14 -32 -14 -40 -1 -3 5 0 7
8 4 8 -3 18 0 22 6 4 6 9 9 12 6 3 -2 2 -9 -2 -15z m-909 -6 c-11 -8 -27 -15
-35 -15 -9 1 -2 7 14 15 39 18 44 18 21 0z m124 7 c0 -16 -25 -40 -50 -47 -25
-8 -25 -7 5 22 31 31 45 39 45 25z m769 -39 c2 -2 -10 -3 -27 -3 -28 0 -32 3
-32 27 l0 26 28 -24 c15 -13 29 -25 31 -26z m100 21 c14 -12 -19 -1 -35 12
-18 14 -18 14 6 3 14 -6 27 -13 29 -15z m-959 -3 c0 -16 -70 -35 -83 -22 -8 8
-4 11 14 11 13 0 31 5 39 10 19 12 30 13 30 1z m955 -11 c27 -7 25 -8 -17 -9
-45 -1 -65 8 -51 23 4 4 14 4 22 0 9 -4 30 -10 46 -14z m-1123 -12 c-7 -7 -12
-8 -12 -2 0 6 3 14 7 17 3 4 9 5 12 2 2 -3 -1 -11 -7 -17z m1233 12 c3 -5 1
-10 -4 -10 -6 0 -11 5 -11 10 0 6 2 10 4 10 3 0 8 -4 11 -10z m-605 -153 c0
-29 4 -47 8 -40 6 9 13 3 26 -17 17 -30 17 -31 -6 -73 -30 -54 -60 -60 -82
-16 -9 18 -16 38 -16 45 0 20 36 75 43 67 4 -3 7 17 7 46 0 32 4 50 10 46 6
-3 10 -30 10 -58z"/>
<path d="M1867 2269 c7 -7 15 -10 18 -7 3 3 -2 9 -12 12 -14 6 -15 5 -6 -5z"/>
<path d="M440 2110 c0 -5 5 -10 11 -10 5 0 7 5 4 10 -3 6 -8 10 -11 10 -2 0
-4 -4 -4 -10z"/>
<path d="M811 1936 c-8 -10 -9 -16 -1 -21 5 -3 10 -1 10 4 0 6 11 11 24 11 14
0 28 5 31 10 10 16 -51 12 -64 -4z"/>
<path d="M1525 1941 c14 -14 59 -18 65 -6 3 6 -13 11 -35 13 -27 2 -37 0 -30
-7z"/>
<path d="M638 1953 c6 -2 18 -2 25 0 6 3 1 5 -13 5 -14 0 -19 -2 -12 -5z"/>
<path d="M625 1920 c3 -5 13 -10 21 -10 8 0 12 5 9 10 -3 6 -13 10 -21 10 -8
0 -12 -4 -9 -10z"/>
<path d="M2225 1895 c-68 -62 -67 -74 1 -18 36 29 75 75 62 73 -2 -1 -30 -25
-63 -55z"/>
<path d="M2185 1812 c-22 -20 -51 -45 -65 -55 -25 -18 -24 -18 6 -1 40 22 110
81 104 87 -3 3 -23 -11 -45 -31z"/>
<path d="M1365 1900 c-16 -7 -17 -9 -3 -9 9 -1 20 4 23 9 7 11 7 11 -20 0z"/>
<path d="M1022 1840 c7 -11 19 -22 28 -25 8 -4 4 5 -9 19 -29 31 -36 33 -19 6z"/>
<path d="M1358 1833 c-18 -21 -31 -43 -25 -43 2 0 13 14 25 30 25 33 24 41 0
13z"/>
<path d="M1934 1778 l-19 -23 23 19 c21 18 27 26 19 26 -2 0 -12 -10 -23 -22z"/>
<path d="M1250 1730 c-6 -11 -8 -20 -6 -20 3 0 10 9 16 20 6 11 8 20 6 20 -3
0 -10 -9 -16 -20z"/>
<path d="M960 1791 c0 -5 5 -13 10 -16 6 -3 10 -2 10 4 0 5 -4 13 -10 16 -5 3
-10 2 -10 -4z"/>
<path d="M1429 1793 c-13 -16 -12 -17 4 -4 9 7 17 15 17 17 0 8 -8 3 -21 -13z"/>
<path d="M130 1725 c0 -2 18 -14 40 -25 50 -25 53 -19 4 9 -36 22 -44 24 -44
16z"/>
<path d="M1350 1739 c-7 -11 -10 -23 -7 -25 2 -2 9 7 15 21 14 30 7 33 -8 4z"/>
<path d="M1326 1685 c-3 -9 -6 -22 -5 -28 0 -7 5 -1 10 12 5 13 8 26 5 28 -2
2 -6 -3 -10 -12z"/>
<path d="M2151 1670 c-36 -22 -61 -40 -57 -40 12 0 126 61 132 71 10 17 -11 8
-75 -31z"/>
<path d="M563 1683 c14 -16 15 -22 5 -25 -13 -5 20 -41 80 -85 25 -19 31 -20
36 -8 3 8 2 14 -2 12 -11 -3 -101 66 -102 77 0 5 10 0 23 -12 13 -12 27 -22
32 -22 12 0 -25 39 -60 63 l-30 21 18 -21z"/>
<path d="M615 1501 c-3 -5 -1 -12 4 -15 5 -3 11 1 15 9 6 16 -9 21 -19 6z"/>
<path d="M558 1433 c6 -2 18 -2 25 0 6 3 1 5 -13 5 -14 0 -19 -2 -12 -5z"/>
<path d="M646 1283 c-6 -14 -5 -15 5 -6 7 7 10 15 7 18 -3 3 -9 -2 -12 -12z"/>
<path d="M832 1260 c0 -14 2 -19 5 -12 2 6 2 18 0 25 -3 6 -5 1 -5 -13z"/>
<path d="M411 1656 c10 -9 69 -36 69 -32 0 6 -55 36 -66 36 -4 0 -5 -2 -3 -4z"/>
<path d="M1910 1625 c-30 -19 -52 -35 -47 -35 9 0 117 60 117 66 0 10 -18 1
-70 -31z"/>
<path d="M1121 1665 c1 -19 18 -51 18 -35 0 8 -4 22 -9 30 -5 8 -9 11 -9 5z"/>
<path d="M2173 1568 c-35 -12 -61 -23 -59 -26 5 -4 146 37 146 43 0 9 -25 4
-87 -17z"/>
<path d="M440 1550 c8 -5 24 -10 34 -10 26 0 18 6 -19 14 -22 5 -26 4 -15 -4z"/>
<path d="M1503 1433 c9 -2 25 -2 35 0 9 3 1 5 -18 5 -19 0 -27 -2 -17 -5z"/>
<path d="M243 1453 c15 -2 37 -2 50 0 12 2 0 4 -28 4 -27 0 -38 -2 -22 -4z"/>
<path d="M2228 1463 c7 -3 16 -2 19 1 4 3 -2 6 -13 5 -11 0 -14 -3 -6 -6z"/>
<path d="M2113 1453 c15 -2 37 -2 50 0 12 2 0 4 -28 4 -27 0 -38 -2 -22 -4z"/>
<path d="M55 1370 c-3 -6 1 -7 9 -4 18 7 21 14 7 14 -6 0 -13 -4 -16 -10z"/>
<path d="M218 1363 c12 -2 30 -2 40 0 9 3 -1 5 -23 4 -22 0 -30 -2 -17 -4z"/>
<path d="M2148 1363 c12 -2 30 -2 40 0 9 3 -1 5 -23 4 -22 0 -30 -2 -17 -4z"/>
<path d="M450 1310 c-13 -8 -13 -10 2 -10 9 0 20 5 23 10 8 13 -5 13 -25 0z"/>
<path d="M278 1283 c7 -3 16 -2 19 1 4 3 -2 6 -13 5 -11 0 -14 -3 -6 -6z"/>
<path d="M238 1273 c7 -3 16 -2 19 1 4 3 -2 6 -13 5 -11 0 -14 -3 -6 -6z"/>
<path d="M198 1263 c7 -3 16 -2 19 1 4 3 -2 6 -13 5 -11 0 -14 -3 -6 -6z"/>
<path d="M2108 1283 c7 -3 16 -2 19 1 4 3 -2 6 -13 5 -11 0 -14 -3 -6 -6z"/>
<path d="M2148 1273 c7 -3 16 -2 19 1 4 3 -2 6 -13 5 -11 0 -14 -3 -6 -6z"/>
<path d="M1807 1199 c4 -13 8 -18 11 -10 2 7 -1 18 -6 23 -8 8 -9 4 -5 -13z"/>
<path d="M656 1118 c3 -5 10 -6 15 -3 13 9 11 12 -6 12 -8 0 -12 -4 -9 -9z"/>
<path d="M1967 1178 c4 -7 8 -15 8 -18 0 -10 31 -45 60 -70 17 -14 26 -21 22
-16 -4 6 2 15 13 21 l21 11 -23 19 c-13 11 -17 13 -10 5 6 -8 12 -18 12 -23 0
-6 -22 11 -50 37 -48 45 -69 58 -53 34z m66 -64 c26 -35 16 -30 -24 12 -18 20
-25 31 -14 24 11 -6 28 -23 38 -36z"/>
<path d="M750 1144 c-17 -45 -6 -61 21 -28 10 13 10 17 0 24 -8 4 -10 13 -7
19 4 6 5 11 1 11 -3 0 -10 -12 -15 -26z"/>
<path d="M1600 1106 c0 -2 7 -9 15 -16 13 -11 14 -10 9 4 -5 14 -24 23 -24 12z"/>
<path d="M800 1042 c-48 -32 -52 -50 -9 -44 31 5 43 19 37 45 -3 13 -7 12 -28
-1z"/>
<path d="M1578 1046 c-27 -19 -23 -46 6 -46 13 0 32 -3 40 -6 13 -5 15 -2 9
12 -4 11 -14 27 -22 36 -13 14 -19 14 -33 4z"/>
<path d="M1622 919 c2 -7 10 -15 17 -17 8 -3 12 1 9 9 -2 7 -10 15 -17 17 -8
3 -12 -1 -9 -9z"/>
<path d="M1477 785 c-4 -33 -10 -74 -13 -91 -7 -51 -54 -87 -121 -92 -47 -4
-53 -6 -34 -14 33 -12 99 8 132 41 34 34 51 95 47 164 l-3 52 -8 -60z"/>
<path d="M1280 753 c-39 -32 -69 -79 -99 -155 -27 -67 -48 -89 -99 -98 -34 -7
-35 -8 -7 -9 54 -2 93 33 131 114 19 40 34 78 34 82 0 5 14 24 31 41 30 31 42
36 99 45 15 3 8 5 -17 6 -32 1 -49 -5 -73 -26z"/>
<path d="M680 844 c0 -7 132 -65 141 -62 4 2 -26 17 -67 35 -41 17 -74 29 -74
27z"/>
<path d="M810 675 c-14 -8 -20 -14 -14 -15 5 0 19 7 30 15 24 18 16 19 -16 0z"/>
<path d="M748 653 c6 -2 18 -2 25 0 6 3 1 5 -13 5 -14 0 -19 -2 -12 -5z"/>
<path d="M1696 746 c3 -9 11 -16 16 -16 13 0 5 23 -10 28 -7 2 -10 -2 -6 -12z"/>
<path d="M1070 650 c-13 -9 -13 -10 0 -9 8 1 26 5 40 9 l25 8 -25 1 c-14 0
-32 -4 -40 -9z"/>
<path d="M1510 631 c0 -5 5 -13 10 -16 6 -3 10 -2 10 4 0 5 -4 13 -10 16 -5 3
-10 2 -10 -4z"/>
<path d="M1241 253 c0 -30 3 -53 9 -53 11 0 11 31 0 75 -7 26 -8 22 -9 -22z"/>
<path d="M1152 279 c-1 -9 -5 -32 -8 -50 -5 -26 -4 -31 5 -23 7 7 11 28 8 50
-2 22 -4 32 -5 23z"/>
<path d="M917 342 c-23 -25 -21 -32 8 -32 22 0 24 3 16 19 -6 10 -7 21 -4 25
3 3 4 6 1 6 -3 0 -12 -8 -21 -18z"/>
<path d="M844 238 c1 -53 3 -58 23 -58 22 0 22 1 5 20 -9 11 -20 37 -23 58 -6
30 -7 26 -5 -20z"/>
<path d="M870 240 c0 -11 7 -23 15 -27 26 -9 28 4 6 26 -21 21 -21 21 -21 1z"/>
<path d="M1095 400 c-9 -16 -13 -30 -11 -30 3 0 12 14 21 30 9 17 13 30 11 30
-3 0 -12 -13 -21 -30z"/>
<path d="M1060 340 c-6 -11 -8 -20 -6 -20 3 0 10 9 16 20 6 11 8 20 6 20 -3 0
-10 -9 -16 -20z"/>
<path d="M1052 168 c8 -12 21 -24 28 -26 8 -3 6 5 -6 21 -23 32 -42 36 -22 5z"/>
<path d="M1355 398 c22 -26 41 -45 44 -42 3 2 -15 24 -38 47 l-44 42 38 -47z"/>
<path d="M1287 415 c3 -11 19 -39 35 -62 15 -23 32 -52 38 -65 5 -13 9 -17 9
-10 1 7 -8 32 -19 54 -11 23 -18 44 -15 46 3 3 5 0 5 -6 0 -7 5 -12 11 -12 8
0 8 4 -1 15 -6 8 -15 13 -20 12 -4 -1 -17 9 -29 23 -17 21 -20 22 -14 5z"/>
<path d="M1315 150 c-3 -6 1 -7 9 -4 18 7 21 14 7 14 -6 0 -13 -4 -16 -10z"/>
<path d="M1550 262 l5 -47 3 39 c2 21 0 42 -5 47 -4 4 -6 -13 -3 -39z"/>
<path d="M1615 296 c11 -8 24 -12 29 -8 5 3 1 9 -10 13 -31 12 -39 10 -19 -5z"/>
<path d="M1210 120 c0 -7 -7 -10 -15 -6 -8 3 -15 1 -15 -4 0 -13 37 -13 45 -1
3 5 1 12 -5 16 -5 3 -10 1 -10 -5z"/>
<path d="M1164 87 c3 -10 6 -25 6 -33 0 -19 36 -18 44 2 9 23 8 24 -12 24 -10
0 -24 6 -31 13 -11 10 -13 9 -7 -6z"/>
<path d="M1748 1953 c6 -2 18 -2 25 0 6 3 1 5 -13 5 -14 0 -19 -2 -12 -5z"/>
<path d="M1740 1920 c0 -5 7 -10 15 -10 8 0 15 5 15 10 0 6 -7 10 -15 10 -8 0
-15 -4 -15 -10z"/>
<path d="M170 1835 c24 -32 32 -38 86 -73 68 -43 82 -41 19 3 -28 19 -66 47
-85 62 -24 19 -30 22 -20 8z"/>
<path d="M1806 1631 l-30 -36 34 32 c19 18 32 34 29 36 -2 2 -17 -12 -33 -32z"/>
<path d="M268 1543 c7 -3 16 -2 19 1 4 3 -2 6 -13 5 -11 0 -14 -3 -6 -6z"/>
<path d="M1751 1499 c24 -34 29 -36 29 -11 0 9 -11 22 -25 29 l-25 11 21 -29z"/>
<path d="M868 1433 c6 -2 18 -2 25 0 6 3 1 5 -13 5 -14 0 -19 -2 -12 -5z"/>
<path d="M1818 1433 c6 -2 18 -2 25 0 6 3 1 5 -13 5 -14 0 -19 -2 -12 -5z"/>
<path d="M1800 1350 c8 -5 20 -10 25 -10 6 0 3 5 -5 10 -8 5 -19 10 -25 10 -5
0 -3 -5 5 -10z"/>
<path d="M1740 1291 c0 -5 5 -13 10 -16 6 -3 10 -2 10 4 0 5 -4 13 -10 16 -5
3 -10 2 -10 -4z"/>
</g>
</svg>
